SplineFontDB: 3.0
FontName: LizardIcons
FullName: LizardIcons
FamilyName: Lizard Icons
Weight: Regular
ItalicAngle: 0
UnderlinePosition: -102.4
UnderlineWidth: 51.2
Ascent: 819
Descent: 205
InvalidEm: 0
LayerCount: 2
Layer: 0 0 "Back" 1
Layer: 1 0 "Fore" 0
XUID: [1021 146 1478046785 6332586]
OS2Version: 0
OS2_WeightWidthSlopeOnly: 0
OS2_UseTypoMetrics: 0
CreationTime: 1542199328
ModificationTime: 1545318375
PfmFamily: 17
TTFWeight: 400
TTFWidth: 5
LineGap: 92
VLineGap: 92
Panose: 2 0 5 3 0 0 0 0 0 0
OS2TypoAscent: 0
OS2TypoAOffset: 1
OS2TypoDescent: 0
OS2TypoDOffset: 1
OS2TypoLinegap: 92
OS2WinAscent: 0
OS2WinAOffset: 1
OS2WinDescent: 0
OS2WinDOffset: 1
HheadAscent: 0
HheadAOffset: 1
HheadDescent: 0
HheadDOffset: 1
OS2Vendor: 'PfEd'
DEI: 91125
Encoding: Original
UnicodeInterp: none
NameList: AGL For New Fonts
DisplaySize: -48
AntiAlias: 1
FitToEm: 0
WinInfo: 0 38 14
BeginChars: 91 90

StartChar: a
Encoding: 1 97 0
Width: 893
Flags: W
LayerCount: 2
Fore
SplineSet
32.1602 809.282 m 1
 370.7402 615.242 l 1
 370.7402 3.423 l 1
 36.1202 -194.577 l 1
 -3.4804 -129.2372 l 1
 287.5806 43.0228 l 1
 287.5806 567.7228 l 1
 -3.4804 734.0428 l 1
 32.1602 809.282 l 1
32.1602 809.282 m 1024
853.86 -194.577 m 1
 515.28 -2.517 l 1
 515.28 609.303 l 1
 849.9 809.282 l 1
 891.4801 743.9422 l 1
 598.4401 573.6632 l 1
 598.4401 46.9822 l 1
 891.4801 -119.3368 l 1
 853.86 -194.577 l 1
853.86 -194.577 m 1024
EndSplineSet
EndChar

StartChar: b
Encoding: 2 98 1
Width: 571
Flags: W
LayerCount: 2
Fore
SplineSet
-1.61035 820.601 m 1
 129.07065 820.601 l 1
 129.07065 624.58 l 1
 435.96965 624.58 l 1
 435.96965 818.62 l 1
 570.61065 818.62 l 1
 570.61065 -201.08 l 1
 433.99065 -201.08 l 1
 433.99065 10.78 l 1
 131.05065 10.78 l 1
 131.05065 -207.02 l 1
 -1.60935 -207.02 l 1
 -1.60935 820.6 l 1
 -1.61035 820.601 l 1
-1.61035 820.601 m 1024
EndSplineSet
EndChar

StartChar: c
Encoding: 3 99 2
Width: 573
Flags: W
LayerCount: 2
Fore
SplineSet
0.0751953 820.366 m 1
 137.6251953 820.366 l 1
 137.6251953 606.18 l 1
 434.3401953 606.18 l 1
 434.3401953 820.366 l 1
 569.9251953 820.366 l 1
 569.9251953 -203.404 l 1
 438.2701953 -203.404 l 1
 438.2701953 8.817 l 1
 137.6251953 8.817 l 1
 137.6251953 -199.473 l 1
 0.0751953000001 -199.473 l 1
 0.0751953000001 820.357 l 1
 0.0751953 820.366 l 1
137.625 492.211 m 1
 135.66016 118.86 l 1
 434.34016 118.86 l 1
 434.34016 492.211 l 1
 137.62516 492.211 l 1
 137.625 492.211 l 1
137.625 492.211 m 1024
EndSplineSet
EndChar

StartChar: d
Encoding: 4 100 3
Width: 1199
Flags: W
LayerCount: 2
Fore
SplineSet
55.6484 569.119 m 1
 336.0154 281.625 l 1
 53.2714 -1.119 l 1
 -3.752 55.9044 l 1
 217.216 281.6254 l 1
 -6.129 507.3444 l 1
 55.6484 569.119 l 1
55.6484 569.119 m 1024
1134.35 569.119 m 1
 1196.1273 507.3436 l 1
 972.7823 281.6246 l 1
 1193.7503 55.9036 l 1
 1136.7269 -1.1198 l 1
 851.6079 281.6242 l 1
 1134.35 569.119 l 1
1134.35 569.119 m 1024
390.665 379.04 m 1
 564.111 379.04 l 1
 564.111 184.209 l 1
 390.665 184.209 l 1
 390.665 379.04 l 1
390.665 379.04 m 1024
625.889 379.04 m 1
 799.336 379.04 l 1
 799.336 184.209 l 1
 625.889 184.209 l 1
 625.889 379.04 l 1
625.889 379.04 m 1024
EndSplineSet
EndChar

StartChar: e
Encoding: 5 101 4
Width: 1158
Flags: W
LayerCount: 2
Fore
SplineSet
161.448 521.296 m 1
 408.552 269.441 l 1
 159.072 17.585 l 1
 109.1765 69.8565 l 1
 304.0095 269.4415 l 1
 106.8005 466.6495 l 1
 161.448 521.296 l 1
161.448 521.296 m 1024
1111.85 521.296 m 1
 1164.1215 466.6485 l 1
 969.2905 269.4405 l 1
 1161.7465 69.8555 l 1
 1114.227 17.584 l 1
 864.747 269.44 l 1
 1111.85 521.296 l 1
1111.85 521.296 m 1024
458.448 352.6 m 1
 608.136 352.6 l 1
 608.136 181.529 l 1
 458.448 181.529 l 1
 458.448 352.6 l 1
458.448 352.6 m 1024
665.16 352.6 m 1
 814.848 352.6 l 1
 814.848 181.529 l 1
 665.16 181.529 l 1
 665.16 352.6 l 1
665.16 352.6 m 1024
7.00879 523.672 m 1
 73.53519 523.672 l 1
 73.53519 3.328 l 1
 -0.11911 3.328 l 1
 7.00879 523.672 l 1
7.00879 523.672 m 1024
EndSplineSet
EndChar

StartChar: f
Encoding: 6 102 5
Width: 1017
Flags: W
LayerCount: 2
Fore
SplineSet
507.556 -201.855 m 0
 366.976 -201.855 246.845 -150.7349 147.16 -51.052 c 0
 47.4754 48.6326 -3.645 168.765 -3.645 309.345 c 0
 -3.645 449.925 47.4751 567.501 147.16 667.185 c 0
 246.8446 766.8676 366.975 817.988 507.556 817.988 c 0
 648.136 817.988 765.712 766.8679 865.396 667.185 c 0
 965.0806 567.5014 1013.645 449.925 1013.645 309.345 c 0
 1013.645 168.765 965.0805 48.632 865.396 -51.052 c 0
 765.7124 -150.7346 648.136 -201.855 507.556 -201.855 c 0
507.556 -201.855 m 1024
507.556 -94.5039 m 0
 620.02 -94.5039 714.592 -56.1641 791.272 23.0721 c 0
 867.9517 102.3075 906.292 196.8811 906.292 309.3441 c 0
 906.292 421.8071 867.9522 513.8241 791.272 593.0601 c 0
 714.5918 672.2961 620.02 710.6351 507.556 710.6351 c 0
 395.092 710.6351 300.52 672.2953 221.285 593.0601 c 0
 142.0496 513.8247 103.71 421.8071 103.71 309.3441 c 0
 103.71 196.8801 142.0498 102.3071 221.285 23.0721 c 0
 300.5204 -56.1642 395.093 -94.5039 507.556 -94.5039 c 0
507.556 -94.5039 m 1024
507.556 66.5244 m 0
 441.0999 66.5244 384.868 92.0849 336.305 138.0918 c 0
 287.7405 184.1006 262.18 242.8878 262.18 309.3448 c 0
 262.18 375.8009 287.7405 432.0328 336.305 478.0398 c 0
 384.8685 524.0476 441.1 549.6072 507.556 549.6072 c 0
 574.0121 549.6072 630.244 524.0476 676.251 478.0398 c 0
 722.2598 432.032 747.8203 375.8008 747.8203 309.3448 c 0
 747.8203 242.8878 722.2598 184.1008 676.251 138.0918 c 0
 630.2442 92.085 574.012 66.5244 507.556 66.5244 c 0
507.556 66.5244 m 1024
EndSplineSet
EndChar

StartChar: g
Encoding: 7 103 6
Width: 829
Flags: W
LayerCount: 2
Fore
SplineSet
-1.60547 816.562 m 1
 234.37453 816.562 l 1
 234.37453 -201.878 l 1
 4.60453 -201.878 l 1
 -1.60547 816.562 l 1
-1.60547 816.562 m 1024
385.485 771.022 m 1
 832.605 305.272 l 1
 385.485 -143.917 l 1
 288.195 -52.8369 l 1
 638.025 311.4831 l 1
 271.634 684.0831 l 1
 385.485 771.022 l 1
385.485 771.022 m 1024
EndSplineSet
EndChar

StartChar: h
Encoding: 8 104 7
Width: 518
Flags: W
LayerCount: 2
Fore
SplineSet
9.93555 814.608 m 1
 517.04555 814.608 l 1
 517.04555 315.483 l 1
 315.39955 315.483 l 1
 315.39955 -53.869 l 1
 385.27745 -53.869 l 1
 261.49345 -201.609 l 1
 139.70845 -51.872 l 1
 203.59615 -51.872 l 1
 203.59615 315.482 l 1
 -0.0468499999999 315.482 l 1
 9.93555 814.608 l 1
9.93555 814.608 m 1024
EndSplineSet
EndChar

StartChar: i
Encoding: 9 105 8
Width: 560
Flags: W
LayerCount: 2
Fore
SplineSet
558.625 819.875 m 1
 7.375 819.875 l 1
 -1.625 277.625 l 1
 180.625 277.625 l 1
 180.625 261.875 178.375 223.625 176.125 162.875 c 0
 173.875 102.125 173.875 63.875 173.875 48.125 c 1
 70.375 48.125 l 1
 281.875 -212.875 l 1
 495.625 45.875 l 1
 378.625 45.875 l 1
 378.625 277.625 l 1
 558.625 277.625 l 1
 558.625 819.875 l 1
279.625 374.375 m 1
 97.375 374.375 l 1
 104.125 723.125 l 1
 459.625 723.125 l 1
 459.625 374.375 l 1
 281.875 374.375 l 1
 279.625 374.375 l 1
279.625 -50.875 m 1
 281.875 -53.125 l 1
 279.625 -53.125 l 1
 279.625 -50.875 l 1
56.875 770.375 m 1024
56.875 770.375 m 1024
EndSplineSet
EndChar

StartChar: j
Encoding: 10 106 9
Width: 712
Flags: W
LayerCount: 2
Fore
SplineSet
13.9297 359.479 m 1
 -1.9092 339.6792 l 1
 407.9498 30.7992 l 1
 510.9088 -208.7808 l 1
 532.69 -196.9009 l 1
 429.729 46.6401 l 1
 13.9297 359.479 l 1
413.891 42.6797 m 1
 439.6303 42.6797 l 1
 439.6303 779.2407 l 1
 413.891 779.2407 l 1
 413.891 42.6797 l 1
409.93 52.5801 m 1
 427.7503 32.7803 l 1
 708.9093 296.1203 l 1
 691.0909 315.9201 l 1
 409.93 52.5801 l 1
425.771 767.359 m 0
 405.9702 767.359 398.0503 775.2799 398.0503 795.0797 c 0
 398.0503 814.8795 405.97022 824.7799 425.771 824.7799 c 0
 445.5708 824.7799 453.4907 814.87951 453.4907 795.0797 c 0
 453.4907 775.27989 445.57078 767.359 425.771 767.359 c 0
425.771 767.359 m 1024
EndSplineSet
EndChar

StartChar: k
Encoding: 11 107 10
Width: 1046
Flags: W
LayerCount: 2
Fore
SplineSet
-1.73828 483.332 m 1
 1046.74172 483.332 l 1
 1046.74172 0.668 l 1
 -1.73828 0.668 l 1
 -1.73828 483.332 l 1
-1.73828 483.332 m 1024
EndSplineSet
EndChar

StartChar: l
Encoding: 12 108 11
Width: 985
Flags: W
LayerCount: 2
Fore
SplineSet
1.125 0.400391 m 1
 1.125 448.900391 l 1
 285.825 448.900391 l 1
 285.825 733.599391 l 1
 705.075 733.599391 l 1
 705.075 448.900391 l 1
 985.875 448.900391 l 1
 985.875 0.400391 l 1
 1.125 0.400391 l 1
1.125 0.400391 m 1024
EndSplineSet
EndChar

StartChar: m
Encoding: 13 109 12
Width: 710
Flags: W
LayerCount: 2
Fore
SplineSet
390.795 815.22 m 1
 496.364 790.3802 l 1
 374.235 560.6102 l 1
 606.075 421.9202 l 1
 405.285 299.7892 l 1
 500.5047 219.0607 l 1
 245.8947 179.7306 l 1
 285.2248 419.8496 l 1
 343.1857 334.9805 l 1
 428.0558 423.9893 l 1
 276.9448 523.3497 l 1
 390.795 815.22 l 1
390.795 815.22 m 1024
1.63574 140.4 m 1
 705.43574 140.4 l 1
 705.43574 -203.22 l 1
 -0.43526 -203.22 l 1
 1.63574 140.4 l 1
1.63574 140.4 m 1024
EndSplineSet
EndChar

StartChar: n
Encoding: 14 110 13
Width: 608
Flags: W
LayerCount: 2
Fore
SplineSet
39.1299 -204.08 m 1
 266.8299 397.84 l 1
 66.8499 193.901 l 1
 -2.4499 259.2408 l 1
 233.1701 498.8208 l 1
 -8.3909 750.2808 l 1
 52.99 807.7017 l 1
 306.429 566.1407 l 1
 542.049 803.7407 l 1
 599.4689 742.3608 l 1
 367.8089 502.7808 l 1
 607.3899 259.2408 l 1
 542.0491 187.9605 l 1
 344.0491 389.9205 l 1
 573.7291 -204.0795 l 1
 39.1291 -204.0795 l 1
 39.1299 -204.08 l 1
39.1299 -204.08 m 1024
EndSplineSet
EndChar

StartChar: o
Encoding: 15 111 14
Width: 1017
Flags: W
LayerCount: 2
Fore
SplineSet
508 -203.186 m 0
 367.6 -203.186 246.7 -152.4858 147.25 -53.036 c 0
 47.7998 46.4142 -2.9 169.264 -2.9 309.664 c 0
 -2.9 450.063 47.8002 570.964 147.25 670.414 c 0
 246.7002 769.8632 367.6 820.563 508 820.563 c 0
 648.4 820.563 769.3 769.8628 868.75 670.414 c 0
 968.2002 570.9638 1018.9 450.063 1018.9 309.664 c 0
 1018.9 169.264 968.1998 46.414 868.75 -53.036 c 0
 769.2998 -152.4862 648.4 -203.186 508 -203.186 c 0
508 -203.186 m 1024
502.15 -56.9355 m 0
 398.799 -56.9355 313 -19.8857 238.9 52.2645 c 0
 164.7994 124.4149 129.7 212.1645 129.7 315.5145 c 0
 129.7 418.8645 164.7996 504.6645 238.9 578.7645 c 0
 312.9996 652.8641 398.799 687.9645 502.15 687.9645 c 0
 605.5 687.9645 693.25 652.8639 765.4 578.7645 c 0
 837.5494 504.6649 874.599 418.8645 874.599 315.5145 c 0
 874.599 212.1645 837.5492 124.4145 765.4 52.2645 c 0
 693.2496 -19.8859 605.5 -56.9355 502.15 -56.9355 c 0
502.15 -70.585 m 0
 607.45 -70.585 697.15 -33.5352 773.2 42.515 c 0
 849.2498 118.5648 888.25 210.215 888.25 315.515 c 0
 888.25 420.815 849.25 510.515 773.2 586.565 c 0
 697.1502 662.6148 607.45 699.666 502.15 699.666 c 0
 396.849 699.666 307.15 662.6152 231.099 586.565 c 0
 155.0492 510.5152 116.049 420.815 116.049 315.515 c 0
 116.049 210.215 155.049 118.565 231.099 42.515 c 0
 307.1498 -33.5348 396.849 -70.585 502.15 -70.585 c 0
502.15 -62.7852 m 1024
502.15 -62.7852 m 1024
502.15 -62.7852 m 0
 607.45 -62.7852 695.2 -27.6856 769.299 46.4148 c 0
 843.3996 120.5144 880.449 210.2148 880.449 315.5148 c 0
 880.449 420.8148 843.3992 508.5648 769.299 582.6648 c 0
 695.1994 656.7644 607.449 693.8138 502.15 693.8138 c 0
 396.849 693.8138 307.15 656.764 233.049 582.6648 c 0
 158.9494 508.5642 123.849 420.8138 123.849 315.5148 c 0
 123.849 210.2148 158.9496 120.5148 233.049 46.4148 c 0
 307.1496 -27.6858 396.849 -62.7852 502.15 -62.7852 c 0
502.15 -62.7852 m 1024
502.15 227.765 m 0
 478.7496 227.765 457.2994 235.5648 439.7496 253.1146 c 0
 422.1998 270.6654 414.4 292.1146 414.4 315.515 c 0
 414.4 338.9154 422.1998 358.4154 439.7496 375.9652 c 0
 457.2994 393.515 478.7496 403.265 502.15 403.265 c 0
 525.5494 403.265 546.9996 393.515 564.5494 375.9652 c 0
 582.0992 358.4154 589.9 338.9154 589.9 315.515 c 0
 589.9 292.1146 582.09922 270.6654 564.5494 253.1146 c 0
 546.9996 235.5648 525.5494 227.765 502.15 227.765 c 0
502.15 227.765 m 1024
433.9 268.715 m 1
 552.849 389.614 l 1
 839.499 97.114 l 1
 743.9492 -8.186 l 1
 433.9 268.715 l 1
433.9 268.715 m 1024
EndSplineSet
EndChar

StartChar: p
Encoding: 16 112 15
Width: 1207
Flags: W
LayerCount: 2
Fore
SplineSet
14.6602 476.55 m 1
 -1.7207 448.4709 l 1
 -1.7207 284.6709 l 1
 87.2002 284.6709 l 1
 87.2002 392.3109 l 1
 157.4004 392.3109 l 1
 157.4004 284.6709 l 1
 213.5606 284.6709 l 1
 213.5606 389.9709 l 1
 288.4395 389.9709 l 1
 288.4395 284.6709 l 1
 330.5606 284.6709 l 1
 330.5606 392.3109 l 1
 405.4395 392.3109 l 1
 405.4395 284.6709 l 1
 602.0005 284.6709 l 1
 602.0005 565.4709 l 1
 559.8804 565.4709 l 2
 552.86087 565.4709 543.5005 560.79024 536.48 556.11055 c 0
 529.46047 551.42989 527.12062 542.07055 527.12062 535.05005 c 2
 527.12062 361.89005 l 1
 372.68062 490.59005 l 1
 45.07962 490.59005 l 2
 31.04052 488.25021 21.68022 483.57052 14.66072 476.55005 c 1
 14.6602 476.55 l 1
14.6602 90.4502 m 1
 45.0791 76.4102 l 1
 372.6801 76.4102 l 1
 527.1201 207.4502 l 1
 527.1201 29.6102 l 2
 527.1201 22.58969 529.45994 15.5702 536.47948 10.8895 c 0
 543.49999 6.20981 552.86038 1.52915 559.87988 1.52915 c 2
 601.99998 1.52915 l 1
 601.99998 284.67115 l 1
 405.43898 284.67115 l 1
 405.43898 174.69015 l 1
 330.56008 174.69015 l 1
 330.56008 284.67115 l 1
 288.43898 284.67115 l 1
 288.43898 177.02915 l 1
 213.56008 177.02915 l 1
 213.56008 284.67115 l 1
 157.39988 284.67115 l 1
 157.39988 174.69015 l 1
 87.19968 174.69015 l 1
 87.19968 284.67115 l 1
 -1.72122 284.67115 l 1
 -1.72122 118.52915 l 2
 0.6196 106.82895 5.29929 97.47055 14.65968 90.45005 c 1
 14.6602 90.4502 l 1
14.6602 90.4502 m 1024
1189.34 476.55 m 2
 1158.9211 490.59 l 1
 828.9801 490.59 l 1
 676.8801 361.89 l 1
 676.8801 535.05 l 2
 676.8801 542.07051 674.54026 551.4299 667.52072 556.1105 c 0
 660.50021 560.79019 651.13982 565.47085 644.12032 565.47085 c 2
 602.00022 565.47085 l 1
 602.00022 284.67085 l 1
 796.22122 284.67085 l 1
 796.22122 392.31085 l 1
 873.44002 392.31085 l 1
 873.44002 284.67085 l 1
 915.56112 284.67085 l 1
 915.56112 389.97085 l 1
 988.10022 389.97085 l 1
 988.10022 284.67085 l 1
 1048.94002 284.67085 l 1
 1048.94002 392.31085 l 1
 1116.80042 392.31085 l 1
 1116.80042 284.67085 l 1
 1205.72132 284.67085 l 1
 1205.72132 448.47085 l 2
 1203.3805 460.17105 1198.70081 469.52945 1189.34 476.55 c 2
1189.34 90.4502 m 1
 1205.7209 118.5293 l 1
 1205.7209 284.6713 l 1
 1116.8 284.6713 l 1
 1116.8 174.6903 l 1
 1048.9396 174.6903 l 1
 1048.9396 284.6713 l 1
 988.0998 284.6713 l 1
 988.0998 177.0293 l 1
 915.5607 177.0293 l 1
 915.5607 284.6713 l 1
 873.4396 284.6713 l 1
 873.4396 174.6903 l 1
 796.2208 174.6903 l 1
 796.2208 284.6713 l 1
 601.9998 284.6713 l 1
 601.9998 1.5293 l 1
 644.1199 1.5293 l 2
 651.13943 1.5293 660.4998 6.20996 667.5203 10.88965 c 0
 674.53983 15.57031 676.87968 22.58985 676.87968 29.61035 c 2
 676.87968 207.45035 l 1
 828.97968 76.41035 l 1
 1158.92068 76.41035 l 2
 1172.95978 78.75019 1182.32008 83.42988 1189.33958 90.45035 c 1
 1189.34 90.4502 l 1
1189.34 90.4502 m 1024
EndSplineSet
EndChar

StartChar: q
Encoding: 17 113 16
Width: 1040
Flags: W
LayerCount: 2
Fore
SplineSet
-3.25 61.04 m 1
 0.70996 -2.3204 l 1
 1036.24996 1.64054 l 1
 1036.24996 70.94034 l 1
 519.47096 825.32034 l 1
 -3.25 61.04 l 1
305.63 342.2 m 1
 523.43 676.82 l 1
 772.909 322.4 l 1
 721.4295 314.4791 l 1
 608.5705 441.2001 l 1
 565.01 324.3801 l 1
 469.9709 480.8001 l 1
 359.0909 334.2791 l 1
 305.63 342.2 l 1
305.63 342.2 m 1024
EndSplineSet
EndChar

StartChar: r
Encoding: 18 114 17
Width: 344
Flags: W
LayerCount: 2
Fore
SplineSet
16.2754 815.154 m 1
 361.0114 617.587 l 1
 361.0114 -5.357 l 1
 20.3084 -206.957 l 1
 -20.0119 -140.4297 l 1
 276.3401 34.9633 l 1
 276.3401 569.2023 l 1
 -20.0119 738.5473 l 1
 16.2754 815.154 l 1
16.2754 815.154 m 1024
EndSplineSet
EndChar

StartChar: s
Encoding: 19 115 18
Width: 695
Flags: W
LayerCount: 2
Fore
SplineSet
493.005 369.361 m 1
 559.0382 442.2253 l 1
 438.3562 524.198 l 1
 615.9622 806.546 l 1
 693.3811 790.6056 l 1
 518.0511 542.4126 l 1
 693.3811 430.8416 l 1
 531.7121 330.6536 l 1
 615.9621 266.8968 l 1
 415.5861 237.2962 l 1
 447.464 430.8412 l 1
 493.005 369.361 l 1
35.3281 -208.997 m 1
 -3.3819 -138.4091 l 1
 278.9671 34.6429 l 1
 278.9671 574.2909 l 1
 -3.3819 747.3429 l 1
 35.3281 817.9308 l 1
 356.3861 619.8308 l 1
 356.3861 -10.8982 l 1
 35.3281 -208.997 l 1
EndSplineSet
EndChar

StartChar: t
Encoding: 20 116 19
Width: 433
Flags: W
LayerCount: 2
Fore
SplineSet
185.037 817.382 m 1
 235.1308 817.382 l 1
 235.1308 -195.878 l 1
 185.037 -195.878 l 1
 185.037 817.382 l 1
46.1416 -195.882 m 1
 -1.6758 -127.5734 l 1
 337.5952 43.2016 l 1
 337.5952 578.2976 l 1
 -1.6758 749.0726 l 1
 46.1416 817.3812 l 1
 428.6756 623.8372 l 1
 428.6756 -0.0618000000001 l 1
 46.1416 -195.882 l 1
46.1416 817.382 m 1
 96.2334 817.382 l 1
 96.2334 -195.878 l 1
 46.1416 -195.878 l 1
 46.1416 817.382 l 1
EndSplineSet
EndChar

StartChar: u
Encoding: 21 117 20
Width: 411
Flags: W
LayerCount: 2
Fore
SplineSet
412 76 m 1
 4 76 l 1
 4 277 l 1
 412 277 l 1
 412 76 l 1
325 -118 m 1
 4 -118 l 1
 4 -84 l 1
 325 -84 l 1
 232 -24 l 1
 255 0 l 1
 409 -101 l 1
 255 -200 l 1
 232 -178 l 1
 325 -118 l 1
EndSplineSet
EndChar

StartChar: v
Encoding: 22 118 21
Width: 1421
Flags: W
LayerCount: 2
Fore
SplineSet
1128 1 m 1
 807 1 l 1
 807 35 l 1
 1128 35 l 1
 1035 95 l 1
 1058 119 l 1
 1212 18 l 1
 1058 -81 l 1
 1035 -59 l 1
 1128 1 l 1
920 502 m 1
 1091 502 l 1
 1091 393 l 1
 1212 393 l 1
 1212 193 l 1
 804 193 l 1
 804 393 l 1
 920 393 l 1
 920 502 l 1
EndSplineSet
EndChar

StartChar: w
Encoding: 23 119 22
Width: 819
Flags: W
LayerCount: 2
Fore
SplineSet
610 190 m 1
 202 190 l 1
 202 390 l 1
 610 390 l 1
 610 190 l 1
526 2 m 1
 205 2 l 1
 205 36 l 1
 526 36 l 1
 433 95 l 1
 456 119 l 1
 610 19 l 1
 456 -80 l 1
 433 -58 l 1
 526 2 l 1
402 508 m 1
 452 560 l 1
 360 618 l 1
 431 780 l 1
 490 768 l 1
 422 630 l 1
 555 550 l 1
 431 478 l 1
 495 433 l 1
 343 413 l 1
 366 550 l 1
 402 508 l 1
EndSplineSet
EndChar

StartChar: x
Encoding: 24 120 23
Width: 819
Flags: W
LayerCount: 2
Fore
SplineSet
565 190 m 1
 416 190 l 1
 268 190 l 1
 416 581 l 1
 565 190 l 1
527 1 m 1
 206 1 l 1
 206 36 l 1
 527 36 l 1
 446 87 l 1
 457 119 l 1
 612 19 l 1
 457 -81 l 1
 446 -50 l 1
 527 1 l 1
553 753 m 1
 587 718 l 1
 451 583 l 1
 587 446 l 1
 553 412 l 1
 416 549 l 1
 280 412 l 1
 246 447 l 1
 382 583 l 1
 247 718 l 1
 281 753 l 1
 416 617 l 1
 553 753 l 1
EndSplineSet
EndChar

StartChar: y
Encoding: 25 121 24
Width: 1126
Flags: HWO
LayerCount: 2
Fore
SplineSet
1082.75 120.25 m 5
 340.25 120.25 l 5
 333.5 120.25 l 5
 329 120.25 l 5
 320 120.25 l 6
 232.25 120.25 155.75 151.75 92.75 217 c 4
 29.75 282.25 -1.75 361 -1.75 451 c 4
 -1.75 543.25 29.75 619.75 95 685 c 4
 160.25 750.25 236.75 781.75 329 781.75 c 4
 403.25 781.75 470.75 761.5 527 718.75 c 5
 1116.5 196.75 l 5
 1127.75 165.25 l 5
 1123.25 156.25 l 5
 1105.25 127 l 5
 1082.75 120.25 l 5
EndSplineSet
EndChar

StartChar: z
Encoding: 26 122 25
Width: 1192
Flags: W
LayerCount: 2
Fore
SplineSet
-0.375 358.129 m 1
 -0.375 346.2481 l 2
 -0.375 253.584 32.8887 172.8001 99.416 103.8961 c 0
 165.9443 34.9908 246.728 1.7281 339.391 1.7281 c 2
 348.89686 1.7281 l 1
 353.64881 1.7281 l 1
 358.40076 1.7281 l 1
 1142.48076 1.7281 l 2
 1151.98467 1.7281 1159.11166 4.1031 1166.24056 8.85505 c 0
 1182.87146 15.98396 1192.37536 30.23985 1192.37536 51.62455 c 0
 1192.37536 65.88045 1187.62536 75.38435 1178.11946 82.51125 c 2
 555.60946 633.74325 l 1
 493.83116 678.88775 424.92846 700.27055 348.89646 700.27055 c 0
 253.85546 700.27055 170.69646 667.00785 101.79146 600.47955 c 0
 32.88916 533.95125 -0.37454 455.54255 -0.37454 360.50255 c 1
 206.43846 333.45175 l 1
 206.43846 378.39805 224.44136 418.52985 258.81346 452.23975 c 0
 293.18556 485.94875 335.74116 503.60695 386.48146 503.60695 c 1
 437.22166 495.58058 l 2
 453.58986 492.37062 469.95606 485.94874 487.96096 474.71238 c 2
 834.95496 174.53238 l 1
 838.2284 172.92691 l 1
 841.50281 168.1105 l 1
 841.50281 163.29605 l 2
 841.50281 158.47964 839.86609 155.26968 834.95496 153.66421 c 2
 831.68152 152.05874 l 1
 375.02452 152.05874 l 1
 368.47569 153.66421 l 1
 322.64759 158.47964 283.36529 176.13691 252.26669 209.84781 c 0
 221.16809 243.55781 206.43859 280.47671 206.43859 325.42381 c 2
 206.43859 331.84666 l 1
 -0.375 358.129 l 1
EndSplineSet
EndChar

StartChar: A
Encoding: 27 65 26
Width: 1755
Flags: W
LayerCount: 2
Fore
SplineSet
1046 275 m 1
 931 275 l 1
 931 407 l 1
 1046 407 l 1
 1046 275 l 1
879 275 m 1
 763 275 l 1
 763 407 l 1
 879 407 l 1
 879 275 l 1
1317 186 m 1
 1277 147 l 1
 1088 337 l 1
 1277 527 l 1
 1317 488 l 1
 1166 337 l 1
 1317 186 l 1
483 434 m 0
 495 446 510 456 528 463 c 0
 537 466 546 469 555 471 c 0
 564 473 573 474 582 474 c 0
 621 474 656 460 686 430 c 0
 698 418 708 402 715 384 c 0
 722 366 726 348 726 330 c 0
 726 291 712 257 682 227 c 0
 670 215 655 205 637 198 c 2
 610 190 l 2
 601 188 591 186 582 186 c 0
 543 186 509 201 479 231 c 0
 467 243 456 258 449 276 c 0
 442 294 438 312 438 330 c 0
 438 369 453 404 483 434 c 0
EndSplineSet
EndChar

StartChar: B
Encoding: 28 66 27
Width: 1871
Flags: W
LayerCount: 2
Fore
SplineSet
752 331 m 1
 752 315 l 1
 752 306 l 1
 750 299 l 1
 746 284 l 1
 744 277 l 1
 741 270 l 1
 736 256 l 2
 734 252 732 248 729 244 c 2
 724 236 l 1
 710 221 l 2
 681 195 647 181 609 181 c 0
 571 181 538 194 508 221 c 2
 501 228 l 1
 492 238 l 1
 485 251 l 1
 477 268 l 1
 469 296 l 1
 467 314 l 1
 466 325 l 2
 466 337 469 351 475 370 c 0
 481 389 491 408 506 427 c 0
 535 454 569 468 606 468 c 0
 641 468 674 454 705 427 c 0
 736 400 752 368 752 331 c 1
 727 331 l 1
 705 331 l 1
 705 355 696 376 676 395 c 0
 656 414 632 424 605 424 c 0
 579 424 557 414 538 395 c 0
 519 376 510 353 510 325 c 2
 510 316 l 1
 512 306 l 2
 512 299 514 291 518 283 c 2
 526 270 l 1
 539 253 l 2
 549 244 560 237 571 233 c 0
 582 229 594 227 608 227 c 0
 633 227 657 235 677 253 c 1
 698 288 l 2
 703 304 705 319 705 331 c 1
 752 331 l 1
1401 331 m 1
 1401 310 1397 289 1390 270 c 0
 1384 251 1373 235 1358 221 c 0
 1329 195 1295 181 1257 181 c 0
 1219 181 1186 194 1156 221 c 0
 1150 226 1140 242 1125 268 c 1
 1117 296 l 1
 1114 325 l 1
 1114 341 l 1
 1116 352 l 1
 1119 363 l 1
 1121 371 l 1
 1124 379 l 2
 1126 386 1137 402 1155 427 c 1
 1183 454 1216 468 1254 468 c 0
 1288 468 1321 454 1353 427 c 0
 1385 400 1401 368 1401 331 c 1
 1375 331 l 1
 1354 331 l 1
 1354 355 1344 376 1324 395 c 0
 1304 414 1280 424 1253 424 c 0
 1226 424 1204 414 1186 395 c 0
 1184 393 1177 382 1165 363 c 1
 1161 348 l 1
 1159 337 l 1
 1159 325 l 1
 1159 316 l 1
 1160 306 l 2
 1160 298 1162 291 1166 283 c 0
 1170 275 1177 265 1188 253 c 0
 1198 244 1209 237 1220 233 c 0
 1231 229 1243 227 1257 227 c 0
 1282 227 1305 235 1325 253 c 0
 1332 260 1340 272 1346 288 c 2
 1354 331 l 1
 1401 331 l 1
906 394 m 1
 906 261 l 1
 791 261 l 1
 791 394 l 1
 906 394 l 1
1074 394 m 1
 1074 261 l 1
 959 261 l 1
 959 394 l 1
 1074 394 l 1
EndSplineSet
EndChar

StartChar: C
Encoding: 29 67 28
Width: 2023
Flags: W
LayerCount: 2
Fore
SplineSet
870 325 m 1
 867 294 l 2
 867 288 866 282 865 278 c 2
 859 264 l 2
 856 254 851 245 846 237 c 2
 828 215 l 1
 799 189 766 176 728 176 c 0
 690 176 657 189 627 216 c 0
 621 221 610 237 595 263 c 1
 587 291 l 1
 584 310 l 1
 584 320 l 2
 584 332 588 346 594 365 c 0
 600 384 610 403 625 422 c 0
 654 449 687 463 724 463 c 0
 759 463 792 448 823 421 c 0
 854 394 870 362 870 325 c 1
 845 325 l 1
 824 325 l 1
 824 349 814 371 794 390 c 0
 774 409 751 418 724 418 c 0
 697 418 674 409 656 390 c 0
 638 371 629 348 629 320 c 2
 629 311 l 1
 630 301 l 1
 631 292 l 2
 632 289 633 285 636 281 c 2
 644 265 l 1
 658 248 l 2
 668 239 679 232 690 228 c 0
 701 224 713 221 727 221 c 0
 752 221 775 230 795 248 c 0
 803 255 809 267 815 283 c 0
 821 299 824 313 824 325 c 1
 870 325 l 1
1519 325 m 1
 1519 304 1515 284 1508 265 c 0
 1502 246 1491 229 1477 216 c 0
 1463 203 1446 192 1428 186 c 2
 1414 182 l 1
 1400 178 l 1
 1390 177 l 1
 1376 176 l 2
 1338 176 1305 189 1275 216 c 0
 1269 220 1258 236 1243 263 c 1
 1235 291 l 1
 1233 320 l 1
 1233 332 l 1
 1235 346 l 1
 1237 359 l 2
 1238 364 1240 370 1243 374 c 0
 1245 381 1255 397 1273 422 c 1
 1301 449 1335 463 1373 463 c 0
 1412 463 1447 449 1476 421 c 0
 1505 393 1519 361 1519 325 c 1
 1493 325 l 1
 1472 325 l 1
 1472 349 1463 371 1443 390 c 0
 1423 409 1400 418 1372 418 c 0
 1345 418 1322 409 1304 390 c 0
 1286 371 1277 347 1277 320 c 2
 1277 311 l 1
 1278 301 l 2
 1279 296 1281 288 1285 278 c 0
 1289 269 1296 259 1306 248 c 0
 1316 239 1327 232 1338 228 c 0
 1349 224 1361 221 1375 221 c 0
 1399 221 1423 230 1444 248 c 0
 1450 253 1455 264 1462 283 c 0
 1469 302 1472 315 1472 325 c 1
 1519 325 l 1
564 132 m 1
 564 508 l 1
 510 508 l 1
 510 132 l 1
 564 132 l 1
1024 388 m 1
 1024 255 l 1
 909 255 l 1
 909 388 l 1
 1024 388 l 1
1192 388 m 1
 1192 255 l 1
 1077 255 l 1
 1077 388 l 1
 1192 388 l 1
EndSplineSet
EndChar

StartChar: grave
Encoding: 30 96 29
Width: 295
Flags: W
LayerCount: 2
Fore
SplineSet
69 39 m 1
 69 -72 l 1
 0 -72 l 1
 0 463 l 1
 69 463 l 1
 69 352 l 1
 228 352 l 1
 228 463 l 1
 296 463 l 1
 296 -72 l 1
 228 -72 l 1
 228 39 l 1
 69 39 l 1
216 293 m 1
 80 293 l 1
 228 110 l 1
 228 281 l 1
 80 99 l 1
 217 99 l 1
 69 281 l 1
 69 110 l 1
 216 293 l 1
EndSplineSet
EndChar

StartChar: D
Encoding: 31 68 30
Width: 746
Flags: W
LayerCount: 2
Fore
SplineSet
289 177 m 1
 289 618 l 1
 187 618 l 1
 187 697 l 1
 559 697 l 1
 559 618 l 1
 454 618 l 1
 454 177 l 1
 559 177 l 1
 559 97 l 1
 187 97 l 1
 187 177 l 1
 289 177 l 1
EndSplineSet
EndChar

StartChar: E
Encoding: 32 69 31
Width: 846
Flags: W
LayerCount: 2
Fore
SplineSet
634 406 m 1
 634 351 l 1
 522 351 l 1
 522 160 l 1
 634 160 l 1
 634 104 l 1
 211 104 l 1
 211 406 l 1
 634 406 l 1
EndSplineSet
EndChar

StartChar: F
Encoding: 33 70 32
Width: 390
Flags: W
LayerCount: 2
Fore
SplineSet
194 445 m 1
 181 445 168 439 157 429 c 0
 146 419 140 406 140 391 c 0
 140 375 145 362 156 351 c 0
 167 340 179 335 194 335 c 1
 192 292 l 1
 169 292 147 303 127 323 c 0
 108 344 99 367 99 393 c 0
 99 415 108 437 126 457 c 0
 144 477 167 488 192 488 c 1
 194 445 l 1
200 488 m 1
 224 488 245 479 264 460 c 0
 283 441 292 418 292 390 c 0
 292 365 284 343 266 323 c 0
 248 303 226 294 200 294 c 1
 198 335 l 1
 211 335 223 341 234 352 c 0
 245 363 250 375 250 390 c 0
 250 404 245 417 235 428 c 0
 226 439 213 445 198 445 c 1
 200 485 l 1
 200 488 l 1
192 292 m 1
 196 292 l 1
 196 335 l 1
 192 292 l 1
200 294 m 1
 197 292 l 1
 196 335 l 1
 200 294 l 1
194 445 m 1
 196 488 l 1
 194 445 l 1
198 445 m 1
 197 488 l 1
 198 445 l 1
194 642 m 1
 181 642 168 637 157 627 c 0
 146 617 140 604 140 589 c 0
 140 573 145 559 155 548 c 0
 166 537 179 533 194 533 c 1
 192 489 l 1
 169 489 147 499 127 519 c 0
 108 540 99 563 99 589 c 0
 99 606 108 626 126 649 c 0
 144 672 167 684 192 684 c 1
 194 642 l 1
200 684 m 1
 224 684 245 675 264 655 c 0
 283 635 292 612 292 586 c 0
 292 562 283 540 265 520 c 0
 247 500 225 490 200 490 c 1
 198 533 l 1
 211 533 223 538 234 549 c 0
 245 560 250 572 250 587 c 0
 250 601 245 614 235 625 c 0
 226 636 213 642 198 642 c 1
 200 681 l 1
 200 684 l 1
192 489 m 1
 196 489 l 1
 196 533 l 1
 192 489 l 1
200 490 m 1
 197 489 l 1
 196 533 l 1
 200 490 l 1
194 642 m 1
 196 684 l 1
 194 642 l 1
198 642 m 1
 197 684 l 1
 198 642 l 1
194 249 m 1
 181 249 168 244 157 234 c 0
 146 224 140 211 140 196 c 0
 140 180 145 167 156 156 c 0
 167 145 179 140 194 140 c 1
 192 95 l 1
 165 95 143 104 125 124 c 0
 107 144 98 168 98 195 c 0
 98 219 107 241 125 260 c 0
 143 279 166 289 192 289 c 1
 194 249 l 1
200 289 m 1
 224 289 245 280 264 261 c 0
 283 242 292 220 292 192 c 0
 292 184 290 173 286 160 c 0
 282 147 276 134 266 124 c 0
 248 105 226 96 200 96 c 1
 198 140 l 1
 212 140 224 145 235 156 c 0
 245 167 250 180 250 194 c 0
 250 208 245 221 235 232 c 0
 226 243 213 249 198 249 c 1
 200 286 l 1
 200 289 l 1
192 95 m 1
 195 95 l 1
 196 140 l 1
 192 95 l 1
200 96 m 1
 197 95 l 1
 197 140 l 1
 200 96 l 1
194 249 m 1
 195 289 l 1
 194 249 l 1
198 249 m 1
 197 289 l 1
 198 249 l 1
EndSplineSet
EndChar

StartChar: G
Encoding: 34 71 33
Width: 295
Flags: W
LayerCount: 2
Fore
SplineSet
127.5 547 m 1
 295.5 626.2002 l 1
 127.5 710.2002 l 1
 295.5 793 l 1
 207.9004 820.5996 l 1
 -0.9006 712.5996 l 1
 158.7004 629.7998 l 1
 -0.9006 549.4004 l 1
 158.7004 466.5996 l 1
 -0.9006 383.7998 l 1
 158.7004 302.2002 l 1
 -0.9006 220.5996 l 1
 158.7004 137.7998 l 1
 -0.9006 56.2002 l 1
 207.9004 -50.5998 l 1
 295.5 -30.2004 l 1
 127.5 53.7996 l 1
 297.9 134.2 l 1
 127.5 218.2 l 1
 295.5 297.4002 l 1
 127.5 381.4002 l 1
 295.5 461.7996 l 1
 127.5 547 l 1
EndSplineSet
EndChar

StartChar: H
Encoding: 35 72 34
Width: 831
Flags: W
LayerCount: 2
Fore
SplineSet
210 180 m 1
 325 180 l 1
 325 639 l 1
 210 639 l 1
 210 570 l 1
 265 570 l 1
 265 248 l 1
 210 248 l 1
 210 180 l 1
623 180 m 1
 509 180 l 1
 509 639 l 1
 623 639 l 1
 623 570 l 1
 568 570 l 1
 568 248 l 1
 623 248 l 1
 623 180 l 1
EndSplineSet
EndChar

StartChar: I
Encoding: 36 73 35
Width: 831
Flags: W
LayerCount: 2
Fore
SplineSet
265 391 m 1
 325 391 l 1
 325 306 l 1
 265 306 l 1
 265 391 l 1
568 273 m 1
 509 273 l 1
 568 273 l 1
325 544 m 1
 325 639 l 1
 210 639 l 1
 210 570 l 1
 265 570 l 1
 265 544 l 1
 325 544 l 1
325 273 m 1
 265 273 l 1
 265 248 l 1
 210 248 l 1
 210 180 l 1
 325 180 l 1
 325 273 l 1
509 544 m 1
 509 639 l 1
 623 639 l 1
 623 570 l 1
 568 570 l 1
 568 544 l 1
 509 544 l 1
509 273 m 1
 509 180 l 1
 623 180 l 1
 623 248 l 1
 568 248 l 1
 568 273 l 1
 509 273 l 1
265 512 m 1
 325 512 l 1
 325 426 l 1
 265 426 l 1
 265 512 l 1
509 391 m 1
 568 391 l 1
 568 306 l 1
 509 306 l 1
 509 391 l 1
509 512 m 1
 568 512 l 1
 568 426 l 1
 509 426 l 1
 509 512 l 1
EndSplineSet
EndChar

StartChar: J
Encoding: 37 74 36
Width: 923
Flags: W
LayerCount: 2
Fore
SplineSet
232 418 m 1
 232 411 l 1
 247 411 l 1
 247 418 l 1
 232 418 l 1
678 400 m 1
 678 408 l 1
 692 408 l 1
 692 400 l 1
 678 400 l 1
461 629 m 1
 461 643 l 1
 470 643 l 2
 529 643 582 621 626 578 c 0
 670 535 692 483 692 423 c 2
 692 419 l 1
 692 410 l 1
 678 410 l 1
 461 410 l 1
 461 629 l 1
 405 629 355 608 312 567 c 0
 269 526 247 476 247 418 c 1
 239 417 l 1
 233 418 l 1
 233 478 255 531 300 576 c 0
 345 621 398 643 461 643 c 1
 461 629 l 1
232 409 m 1
 247 409 l 1
 461 409 l 1
 461 195 l 1
 467 195 l 2
 521 195 568 213 608 251 c 0
 648 289 671 334 677 389 c 2
 678 400 l 1
 686 400 l 1
 692 400 l 1
 692 340 669 288 623 245 c 0
 618 240 595 224 552 198 c 0
 540 193 525 189 510 186 c 0
 495 183 479 181 464 181 c 2
 457 181 l 2
 403 181 354 200 313 238 c 0
 272 276 246 326 233 389 c 1
 232 399 l 1
 232 409 l 1
EndSplineSet
EndChar

StartChar: K
Encoding: 38 75 37
Width: 819
Flags: W
LayerCount: 2
Fore
SplineSet
614 364 m 1
 614 334 610 306 599 279 c 0
 591 257 575 233 554 209 c 0
 536 193 513 179 488 168 c 2
 471 162 l 1
 447 156 l 1
 430 153 l 1
 411 152 l 2
 358 152 311 171 269 210 c 2
 256 222 l 1
 243 239 l 2
 236 250 229 263 223 276 c 2
 212 315 l 1
 208 357 l 1
 208 375 l 2
 208 382 209 389 211 393 c 2
 213 404 l 1
 215 413 l 1
 219 423 l 1
 219 426 l 1
 223 433 l 1
 226 443 l 1
 230 452 l 2
 232 457 236 463 241 469 c 2
 245 477 l 1
 252 486 l 1
 266 502 l 1
 306 540 354 560 407 560 c 0
 464 560 512 539 553 500 c 0
 594 461 614 415 614 364 c 1
 578 364 l 1
 548 364 l 1
 548 399 533 429 506 456 c 0
 479 483 446 496 406 496 c 0
 369 496 337 483 311 456 c 0
 285 429 272 396 272 357 c 2
 272 344 l 1
 273 330 l 1
 276 319 l 1
 282 302 l 2
 287 291 297 275 312 255 c 1
 341 230 375 217 411 217 c 0
 446 217 478 230 507 255 c 0
 518 264 528 281 535 304 c 2
 544 335 l 1
 547 350 l 1
 548 364 l 1
 614 364 l 1
589 330 m 1
 231 330 l 1
 232 391 l 1
 589 391 l 1
 589 330 l 1
EndSplineSet
EndChar

StartChar: L
Encoding: 39 76 38
Width: 1673
Flags: W
LayerCount: 2
Fore
SplineSet
418 144 m 1
 418 213 l 1
 650 213 l 1
 664 240 l 1
 677 266 l 1
 693 292 l 1
 711 311 l 1
 730 324 l 1
 749 335 l 1
 777 343 l 1
 802 345 l 1
 827 343 l 1
 847 338 l 1
 870 327 l 1
 887 316 l 1
 903 302 l 1
 917 286 l 1
 927 269 l 1
 937 248 l 1
 947 228 l 1
 958 213 l 1
 1119 213 l 1
 1119 144 l 1
 947 144 l 1
 918 200 l 2
 910 215 899 229 884 242 c 2
 865 254 l 1
 844 265 l 1
 823 271 l 1
 802 272 l 1
 780 271 l 2
 775 271 770 269 765 266 c 2
 744 257 l 1
 728 246 l 2
 720 242 705 223 684 188 c 1
 676 168 l 1
 662 144 l 1
 418 144 l 1
1119 277 m 1
 1119 80 l 1
 1253 176 l 1
 1119 277 l 1
EndSplineSet
EndChar

StartChar: M
Encoding: 40 77 39
Width: 1536
Flags: W
LayerCount: 2
Fore
SplineSet
750 321 m 1
 401 321 l 1
 385 321 l 1
 385 275 l 1
 385 162 l 1
 454 162 l 1
 454 252 l 1
 676 252 l 1
 657 236 l 1
 657 162 l 1
 754 252 l 1
 1081 252 l 1
 1081 162 l 1
 1150 162 l 1
 1150 274 l 1
 1150 321 l 1
 1135 321 l 1
 828 321 l 1
 889 378 l 1
 829 433 l 1
 1150 433 l 1
 1150 594 l 1
 1080 594 l 1
 1080 502 l 1
 756 502 l 1
 657 594 l 1
 657 520 l 1
 676 502 l 1
 454 502 l 1
 454 594 l 1
 385 594 l 1
 385 433 l 1
 750 433 l 1
 810 378 l 1
 750 321 l 1
EndSplineSet
EndChar

StartChar: N
Encoding: 41 78 40
Width: 1536
Flags: W
LayerCount: 2
Fore
SplineSet
1150 439 m 1
 1135 439 l 1
 1053 439 l 1
 1053 508 l 1
 1081 508 l 1
 1081 601 l 1
 1150 601 l 1
 1150 439 l 1
997 439 m 1
 880 439 l 1
 880 507 l 1
 997 507 l 1
 997 439 l 1
1150 168 m 1
 1081 168 l 1
 1081 261 l 1
 1052 261 l 1
 1052 328 l 1
 1150 328 l 1
 1150 168 l 1
996 260 m 1
 879 260 l 1
 879 328 l 1
 996 328 l 1
 996 260 l 1
657 439 m 1
 541 439 l 1
 541 507 l 1
 657 507 l 1
 657 439 l 1
479 439 m 1
 385 439 l 1
 385 506 l 1
 385 600 l 1
 454 600 l 1
 454 507 l 1
 479 507 l 1
 479 439 l 1
656 260 m 1
 540 260 l 1
 540 328 l 1
 656 328 l 1
 656 260 l 1
479 260 m 1
 454 260 l 1
 454 168 l 1
 385 168 l 1
 385 262 l 1
 385 328 l 1
 401 328 l 1
 479 328 l 1
 479 260 l 1
1053 439 m 1
 1053 508 l 1
 1053 439 l 1
479 260 m 1
 454 260 l 1
 479 260 l 1
 479 328 l 1
 401 328 l 1
 479 328 l 1
 479 260 l 1
885 384 m 1
 827 329 l 1
 827 261 l 1
 753 261 l 1
 653 168 l 1
 653 242 l 1
 711 296 l 1
 711 329 l 1
 747 329 l 1
 806 384 l 1
 747 439 l 1
 711 439 l 1
 711 473 l 1
 653 527 l 1
 653 600 l 1
 753 507 l 1
 827 507 l 1
 827 439 l 1
 885 384 l 1
EndSplineSet
EndChar

StartChar: O
Encoding: 42 79 41
Width: 1536
Flags: W
LayerCount: 2
Fore
SplineSet
746 589 m 1
 746 515 l 1
 764 498 l 1
 679 498 l 1
 581 589 l 1
 581 515 l 1
 599 498 l 1
 454 498 l 1
 454 590 l 1
 385 590 l 1
 385 429 l 1
 673 429 l 1
 734 373 l 1
 673 316 l 1
 401 316 l 1
 385 316 l 1
 385 270 l 1
 385 159 l 1
 454 159 l 1
 454 248 l 1
 599 248 l 1
 581 231 l 1
 581 157 l 1
 679 248 l 1
 764 248 l 1
 746 231 l 1
 746 157 l 1
 844 248 l 1
 1081 248 l 1
 1081 159 l 1
 1150 159 l 1
 1150 270 l 1
 1150 316 l 1
 1135 316 l 1
 1045 316 l 1
 917 316 l 1
 977 373 l 1
 917 429 l 1
 1150 429 l 1
 1150 590 l 1
 1080 590 l 1
 1080 498 l 1
 844 498 l 1
 746 589 l 1
899 373 m 1
 838 316 l 1
 751 316 l 1
 812 373 l 1
 752 429 l 1
 839 429 l 1
 899 373 l 1
EndSplineSet
EndChar

StartChar: P
Encoding: 43 80 42
Width: 1536
Flags: W
LayerCount: 2
Fore
SplineSet
908 507 m 1
 1080 507 l 1
 1080 598 l 1
 1150 598 l 1
 1150 438 l 1
 982 438 l 1
 1043 382 l 1
 984 325 l 1
 1150 325 l 1
 1150 164 l 1
 1081 164 l 1
 1081 256 l 1
 911 256 l 1
 811 165 l 1
 811 239 l 1
 828 256 l 1
 709 256 l 1
 727 239 l 1
 727 165 l 1
 630 256 l 1
 454 256 l 1
 454 164 l 1
 385 164 l 1
 385 325 l 1
 557 325 l 1
 496 382 l 1
 557 438 l 1
 385 438 l 1
 385 598 l 1
 454 598 l 1
 454 507 l 1
 632 507 l 1
 727 598 l 1
 727 524 l 1
 709 507 l 1
 828 507 l 1
 811 524 l 1
 811 598 l 1
 908 507 l 1
903 438 m 1
 636 438 l 1
 574 382 l 1
 636 325 l 1
 903 325 l 1
 964 382 l 1
 903 438 l 1
EndSplineSet
EndChar

StartChar: Q
Encoding: 44 81 43
Width: 461
Flags: W
LayerCount: 2
Fore
SplineSet
346 330 m 1
 157 140 l 1
 117 179 l 1
 268 330 l 1
 117 481 l 1
 157 520 l 1
 346 330 l 1
EndSplineSet
EndChar

StartChar: R
Encoding: 45 82 44
Width: 352
Flags: W
LayerCount: 2
Fore
SplineSet
44 117 m 1
 44 542 l 1
 -53 542 l 1
 -53 117 l 1
 44 117 l 1
289 329 m 1
 100 139 l 1
 60 179 l 1
 211 329 l 1
 60 480 l 1
 100 520 l 1
 289 329 l 1
EndSplineSet
EndChar

StartChar: S
Encoding: 46 83 45
Width: 669
Flags: W
LayerCount: 2
Fore
SplineSet
503 233 m 1
 503 208 498 184 490 163 c 0
 483 140 471 121 454 106 c 0
 437 91 420 80 400 72 c 0
 380 64 359 60 338 60 c 0
 294 60 256 76 222 107 c 0
 207 121 194 139 185 161 c 2
 176 193 l 1
 173 227 l 1
 173 242 l 1
 173 250 l 1
 175 263 l 2
 175 268 177 272 179 275 c 2
 184 289 l 2
 187 299 193 308 199 318 c 2
 208 332 l 1
 220 344 l 2
 253 375 290 391 334 391 c 0
 381 391 421 375 454 343 c 0
 487 311 503 275 503 233 c 1
 474 233 l 1
 449 233 l 1
 449 262 438 287 415 308 c 0
 392 329 365 340 333 340 c 0
 303 340 279 329 257 307 c 0
 235 285 224 259 224 227 c 2
 224 216 l 1
 226 205 l 1
 227 195 l 1
 232 182 l 2
 237 167 246 154 258 143 c 0
 281 123 307 113 337 113 c 0
 360 113 386 123 416 143 c 0
 425 151 432 164 439 183 c 0
 446 202 449 219 449 233 c 1
 503 233 l 1
EndSplineSet
EndChar

StartChar: T
Encoding: 47 84 46
Width: 657
Flags: W
LayerCount: 2
Fore
SplineSet
449 218 m 1
 449 193 444 169 436 148 c 0
 429 125 417 106 400 91 c 0
 383 76 366 65 346 57 c 0
 326 49 305 45 284 45 c 0
 240 45 202 61 168 92 c 0
 153 106 140 124 131 146 c 2
 122 178 l 1
 119 197 l 1
 119 212 l 2
 119 230 119 239 121 242 c 2
 130 274 l 2
 133 284 139 294 145 304 c 2
 154 317 l 1
 166 330 l 2
 199 361 236 376 280 376 c 0
 327 376 367 360 400 328 c 0
 433 296 449 260 449 218 c 1
 420 218 l 1
 395 218 l 1
 395 247 384 272 361 293 c 0
 338 314 311 325 279 325 c 0
 249 325 225 315 203 293 c 0
 181 271 170 244 170 212 c 2
 170 201 l 1
 172 190 l 1
 173 181 l 1
 178 167 l 2
 183 152 192 140 204 129 c 0
 227 109 253 98 283 98 c 0
 306 98 332 109 362 129 c 0
 371 137 378 149 385 168 c 0
 392 187 395 204 395 218 c 1
 449 218 l 1
96 1 m 1
 96 426 l 1
 -1 426 l 1
 -1 1 l 1
 96 1 l 1
EndSplineSet
EndChar

StartChar: U
Encoding: 48 85 47
Width: 1536
Flags: W
LayerCount: 2
Fore
SplineSet
38 716 m 1
 113 716 l 1
 113 104 l 1
 38 104 l 1
 38 716 l 1
EndSplineSet
EndChar

StartChar: V
Encoding: 49 86 48
Width: 1222
Flags: W
LayerCount: 2
Fore
SplineSet
550 255 m 1
 550 277 542 297 526 314 c 0
 510 331 490 339 468 339 c 0
 445 339 424 331 406 316 c 0
 388 301 380 280 380 256 c 1
 313 257 l 1
 313 296 328 330 359 360 c 0
 390 390 426 404 468 404 c 0
 508 404 543 390 572 362 c 0
 601 334 616 298 616 257 c 1
 550 255 l 1
616 245 m 1
 616 207 601 173 570 144 c 0
 539 115 503 100 464 100 c 0
 424 100 389 114 359 143 c 0
 329 172 313 205 313 244 c 1
 380 248 l 1
 380 227 388 208 405 191 c 0
 423 175 443 167 465 167 c 0
 487 167 507 175 524 191 c 0
 541 207 550 227 550 248 c 1
 612 245 l 1
 616 245 l 1
313 257 m 1
 313 252 l 1
 380 252 l 1
 313 257 l 1
313 244 m 1
 313 250 l 1
 380 252 l 1
 313 244 l 1
550 255 m 1
 550 252 l 1
 616 252 l 1
 550 255 l 1
550 249 m 1
 550 252 l 1
 616 250 l 1
 550 249 l 1
857 254 m 1
 857 276 850 296 834 313 c 0
 818 330 799 338 775 338 c 0
 753 338 732 330 714 314 c 0
 696 298 688 278 688 255 c 1
 619 257 l 1
 619 296 634 330 665 360 c 0
 696 390 733 404 775 404 c 0
 813 404 848 390 878 361 c 0
 908 332 923 297 923 257 c 1
 857 254 l 1
923 245 m 1
 923 207 908 173 878 144 c 0
 848 115 813 100 771 100 c 0
 737 100 703 113 670 141 c 0
 637 169 620 203 620 244 c 1
 688 246 l 1
 688 225 696 206 713 189 c 0
 731 173 750 165 772 165 c 0
 794 165 814 174 831 190 c 0
 848 206 857 225 857 246 c 1
 919 245 l 1
 923 245 l 1
619 257 m 1
 619 252 l 1
 688 251 l 1
 619 257 l 1
620 244 m 1
 619 250 l 1
 688 250 l 1
 620 244 l 1
857 254 m 1
 857 251 l 1
 923 252 l 1
 857 254 l 1
857 247 m 1
 857 250 l 1
 923 250 l 1
 857 247 l 1
EndSplineSet
EndChar

StartChar: W
Encoding: 50 87 49
Width: 927
Flags: W
LayerCount: 2
Fore
SplineSet
641 271 m 1
 641 317 625 358 592 391 c 0
 559 424 519 441 472 441 c 0
 425 441 384 425 348 393 c 0
 312 361 294 320 294 273 c 1
 236 274 l 1
 236 333 259 386 305 431 c 0
 351 476 406 498 471 498 c 0
 532 498 585 476 630 432 c 0
 675 388 697 335 697 274 c 1
 670 272 l 1
 641 271 l 1
697 255 m 1
 697 198 674 147 628 102 c 0
 605 80 580 64 553 53 c 0
 526 42 497 36 466 36 c 0
 404 36 351 58 305 100 c 0
 259 142 236 194 236 254 c 1
 245 255 l 1
 262 256 l 1
 279 256 l 1
 294 255 l 1
 294 218 311 182 345 146 c 0
 379 110 420 93 467 93 c 0
 512 93 553 109 588 141 c 0
 623 173 641 212 641 256 c 1
 691 255 l 1
 697 255 l 1
236 274 m 1
 236 266 l 1
 294 265 l 1
 294 272 l 1
 236 274 l 1
236 254 m 1
 236 264 l 1
 294 264 l 1
 294 255 l 1
 236 254 l 1
641 271 m 1
 641 265 l 1
 697 266 l 1
 697 274 l 1
 641 271 l 1
641 257 m 1
 641 264 l 1
 697 264 l 1
 697 255 l 1
 641 257 l 1
466 177 m 0
 450 177 439 179 432 183 c 0
 425 187 415 193 402 203 c 0
 385 222 376 244 376 267 c 0
 376 292 385 312 403 330 c 0
 412 339 421 346 432 350 c 2
 448 355 l 1
 466 357 l 2
 490 357 511 348 529 330 c 0
 538 322 545 312 549 300 c 2
 554 283 l 1
 556 267 l 2
 556 242 547 222 529 204 c 0
 511 186 491 177 466 177 c 0
EndSplineSet
EndChar

StartChar: X
Encoding: 51 88 50
Width: 1069
Flags: W
LayerCount: 2
Fore
SplineSet
536 484 m 1
 536 426 l 1
 542 426 l 2
 582 426 623 414 667 391 c 1
 706 364 725 330 725 288 c 0
 725 247 705 214 664 189 c 0
 658 185 637 177 602 164 c 1
 569 157 l 1
 535 155 l 2
 495 155 452 167 406 188 c 1
 365 212 343 245 343 287 c 0
 343 323 362 358 401 391 c 1
 438 414 481 426 528 426 c 2
 534 426 l 1
 533 484 l 1
 525 484 l 2
 460 484 401 468 349 434 c 0
 295 397 268 348 268 287 c 0
 268 228 296 180 353 143 c 0
 404 111 465 94 535 94 c 0
 606 94 666 111 716 143 c 0
 772 179 801 227 801 287 c 0
 801 338 774 386 721 433 c 1
 672 467 613 484 545 484 c 2
 536 484 l 1
EndSplineSet
EndChar

StartChar: Y
Encoding: 52 89 51
Width: 788
Flags: W
LayerCount: 2
Fore
SplineSet
670 274 m 1
 670 328 650 374 612 413 c 0
 574 452 527 472 473 472 c 0
 418 472 369 453 328 415 c 0
 287 377 266 331 266 276 c 1
 198 277 l 1
 198 346 225 407 279 459 c 0
 333 511 397 538 472 538 c 0
 543 538 605 512 657 461 c 0
 709 410 734 349 734 278 c 1
 704 275 l 1
 670 274 l 1
734 256 m 1
 734 189 708 129 654 77 c 0
 627 52 598 33 567 20 c 0
 536 7 502 1 466 1 c 0
 394 1 331 26 278 75 c 0
 225 124 199 184 199 254 c 1
 209 256 l 1
 229 256 l 1
 249 256 l 1
 266 256 l 1
 266 213 286 170 325 129 c 0
 364 88 412 66 467 66 c 0
 520 66 567 86 608 123 c 0
 649 160 670 204 670 256 c 1
 727 256 l 1
 734 256 l 1
198 277 m 1
 198 268 l 1
 266 267 l 1
 266 275 l 1
 198 277 l 1
199 254 m 1
 198 265 l 1
 266 265 l 1
 266 256 l 1
 199 254 l 1
670 274 m 1
 670 267 l 1
 734 268 l 1
 734 278 l 1
 670 274 l 1
670 257 m 1
 670 265 l 1
 734 265 l 1
 734 256 l 1
 670 257 l 1
466 165 m 0
 448 165 435 167 427 171 c 0
 419 175 407 183 392 195 c 0
 372 217 361 242 361 269 c 0
 361 298 371 321 392 342 c 0
 402 352 414 361 426 366 c 2
 445 371 l 1
 466 373 l 2
 494 373 518 363 539 342 c 0
 549 332 558 321 563 307 c 2
 568 288 l 1
 570 269 l 2
 570 240 560 215 540 195 c 0
 520 175 495 165 466 165 c 0
EndSplineSet
EndChar

StartChar: Z
Encoding: 53 90 52
Width: 1024
LayerCount: 2
Fore
SplineSet
231 196 m 1
 461 502 l 1
 690 196 l 1
 468 196 l 1
 453 196 l 1
 231 196 l 1
EndSplineSet
EndChar

StartChar: bracketleft
Encoding: 54 91 53
Width: 1536
Flags: W
LayerCount: 2
Fore
SplineSet
396 58 m 1
 396 -10 l 1
 318 -10 l 1
 318 58 l 1
 396 58 l 1
396 58 m 1
 396 -10 l 1
 318 -10 l 1
 318 58 l 1
 396 58 l 1
396 58 m 1
 396 -10 l 1
 318 -10 l 1
 318 58 l 1
 396 58 l 1
506 58 m 1
 506 -10 l 1
 428 -10 l 1
 428 58 l 1
 506 58 l 1
506 58 m 1
 506 -10 l 1
 428 -10 l 1
 428 58 l 1
 506 58 l 1
506 58 m 1
 506 -10 l 1
 428 -10 l 1
 428 58 l 1
 506 58 l 1
EndSplineSet
EndChar

StartChar: backslash
Encoding: 55 92 54
Width: 1536
Flags: W
LayerCount: 2
Fore
SplineSet
1535 62 m 1
 1535 -6 l 1
 1457 -6 l 1
 1457 62 l 1
 1535 62 l 1
1535 62 m 1
 1535 -6 l 1
 1457 -6 l 1
 1457 62 l 1
 1535 62 l 1
1535 62 m 1
 1535 -6 l 1
 1457 -6 l 1
 1457 62 l 1
 1535 62 l 1
1645 62 m 1
 1645 -6 l 1
 1567 -6 l 1
 1567 62 l 1
 1645 62 l 1
1645 62 m 1
 1645 -6 l 1
 1567 -6 l 1
 1567 62 l 1
 1645 62 l 1
1645 62 m 1
 1645 -6 l 1
 1567 -6 l 1
 1567 62 l 1
 1645 62 l 1
1753 62 m 1
 1753 -6 l 1
 1675 -6 l 1
 1675 62 l 1
 1753 62 l 1
1753 62 m 1
 1753 -6 l 1
 1675 -6 l 1
 1675 62 l 1
 1753 62 l 1
1753 62 m 1
 1753 -6 l 1
 1675 -6 l 1
 1675 62 l 1
 1753 62 l 1
1861 62 m 1
 1861 -6 l 1
 1783 -6 l 1
 1783 62 l 1
 1861 62 l 1
1861 62 m 1
 1861 -6 l 1
 1783 -6 l 1
 1783 62 l 1
 1861 62 l 1
1861 62 m 1
 1861 -6 l 1
 1783 -6 l 1
 1783 62 l 1
 1861 62 l 1
1207 62 m 1
 1207 -6 l 1
 1129 -6 l 1
 1129 62 l 1
 1207 62 l 1
1207 62 m 1
 1207 -6 l 1
 1129 -6 l 1
 1129 62 l 1
 1207 62 l 1
1207 62 m 1
 1207 -6 l 1
 1129 -6 l 1
 1129 62 l 1
 1207 62 l 1
1318 62 m 1
 1318 -6 l 1
 1240 -6 l 1
 1240 62 l 1
 1318 62 l 1
1318 62 m 1
 1318 -6 l 1
 1240 -6 l 1
 1240 62 l 1
 1318 62 l 1
1318 62 m 1
 1318 -6 l 1
 1240 -6 l 1
 1240 62 l 1
 1318 62 l 1
1425 62 m 1
 1425 -6 l 1
 1347 -6 l 1
 1347 62 l 1
 1425 62 l 1
1425 62 m 1
 1425 -6 l 1
 1347 -6 l 1
 1347 62 l 1
 1425 62 l 1
1425 62 m 1
 1425 -6 l 1
 1347 -6 l 1
 1347 62 l 1
 1425 62 l 1
EndSplineSet
EndChar

StartChar: bracketright
Encoding: 56 93 55
Width: 1203
Flags: W
LayerCount: 2
Fore
SplineSet
354 112 m 1
 354 137 l 1
 1030 137 l 1
 1030 112 l 1
 354 112 l 1
1111 56 m 1
 1111 343 l 1
 272 343 l 1
 272 56 l 1
 1111 56 l 1
354 289 m 1
 1030 289 l 1
 1030 264 l 1
 354 264 l 1
 354 289 l 1
354 213 m 1
 1030 213 l 1
 1030 189 l 1
 354 189 l 1
 354 213 l 1
EndSplineSet
EndChar

StartChar: asciicircum
Encoding: 57 94 56
Width: 1527
Flags: W
LayerCount: 2
Fore
SplineSet
1089 334 m 1
 923 243 l 1
 923 181 l 1
 1188 333 l 1
 920 493 l 1
 920 427 l 1
 1089 334 l 1
1034 361 m 1
 1034 307 l 1
 910 307 l 1
 910 361 l 1
 1034 361 l 1
837 361 m 1
 837 307 l 1
 714 307 l 1
 714 361 l 1
 837 361 l 1
635 361 m 1
 635 307 l 1
 512 307 l 1
 512 361 l 1
 635 361 l 1
EndSplineSet
EndChar

StartChar: underscore
Encoding: 58 95 57
Width: 1586
Flags: W
LayerCount: 2
Fore
SplineSet
1079 361 m 1
 1079 306 l 1
 532 306 l 1
 532 361 l 1
 1079 361 l 1
1134 334 m 1
 969 243 l 1
 969 181 l 1
 1233 333 l 1
 966 493 l 1
 966 427 l 1
 1134 334 l 1
EndSplineSet
EndChar

StartChar: less
Encoding: 59 60 58
Width: 1024
LayerCount: 2
Fore
SplineSet
197 224 m 1
 197 1 l 1
 243 1 l 1
 243 224 l 1
 197 224 l 1
221 382 m 1
 283 320 l 1
 220 257 l 1
 157 318 l 1
 221 382 l 1
243 224 m 1
 337 320 l 1
 223 434 l 1
 105 317 l 1
 197 224 l 1
 243 224 l 1
EndSplineSet
EndChar

StartChar: equal
Encoding: 60 61 59
Width: 1024
LayerCount: 2
Fore
SplineSet
160 279 m 1
 147 263 l 1
 147 124 l 1
 160 108 l 1
 188 108 l 1
 188 71 l 1
 437 71 l 1
 437 314 l 1
 188 314 l 1
 188 279 l 1
 160 279 l 1
EndSplineSet
EndChar

StartChar: greater
Encoding: 61 62 60
Width: 1024
LayerCount: 2
Fore
SplineSet
287 0 m 1024
287 0 m 1024
253 73 m 1
 299 73 l 1
 299 298 l 1
 287 296 l 1
 275 295 l 1
 264 296 l 1
 253 298 l 1
 253 73 l 1
409 290 m 1
 378 260 l 1
 329 310 l 1
 359 340 l 1
 409 290 l 1
223 471 m 1
 193 441 l 1
 144 490 l 1
 174 520 l 1
 223 471 l 1
377 524 m 1
 408 494 l 1
 357 444 l 1
 327 474 l 1
 377 524 l 1
192 341 m 1
 222 310 l 1
 172 261 l 1
 142 291 l 1
 192 341 l 1
299 73 m 1
 354 0 l 1
 279 0 l 1
 276 0 l 1
 276 20 l 1
 307 20 l 1
 276 62 l 1
 245 20 l 1
 276 20 l 1
 276 0 l 1
 273 0 l 1
 196 0 l 1
 253 73 l 1
 299 73 l 1
328 392 m 1024
328 392 m 1024
328 391 m 1
 365 391 l 1
 371 391 l 1
 371 386 l 2
 371 361 363 340 344 322 c 0
 325 304 302 295 275 295 c 0
 259 295 240 305 216 323 c 0
 192 341 181 363 181 388 c 1
 197 388 l 1
 213 389 l 1
 220 389 l 1
 225 388 l 1
 225 374 230 362 240 352 c 0
 245 348 251 345 257 342 c 2
 275 338 l 2
 289 338 302 343 313 353 c 0
 324 363 328 374 328 387 c 2
 328 391 l 1
224 389 m 1
 215 389 l 1
 204 389 l 1
 195 389 l 1
 189 389 l 1
 181 389 l 1
 181 393 l 2
 181 410 191 430 210 452 c 0
 229 474 252 486 279 486 c 0
 303 486 324 477 343 458 c 0
 362 439 371 418 371 393 c 1
 368 392 l 1
 353 391 l 1
 339 391 l 1
 328 392 l 1
 328 406 324 418 314 428 c 0
 304 438 292 443 278 443 c 0
 264 443 252 439 241 429 c 0
 230 419 225 408 225 393 c 2
 224 389 l 1
EndSplineSet
EndChar

StartChar: question
Encoding: 62 63 61
Width: 1111
Flags: W
LayerCount: 2
Fore
SplineSet
781 286 m 1
 781 345 759 397 716 441 c 0
 673 485 621 507 561 507 c 0
 497 507 443 486 397 444 c 0
 351 402 329 349 329 287 c 1
 281 286 l 1
 281 351 309 412 364 469 c 0
 419 526 485 554 563 554 c 0
 636 554 699 528 753 476 c 0
 807 424 833 360 833 286 c 1
 814 285 l 1
 795 285 l 1
 781 286 l 1
833 263 m 1
 833 193 805 132 750 80 c 0
 695 28 631 2 557 2 c 0
 484 2 420 27 365 78 c 0
 310 129 282 190 282 262 c 1
 290 265 l 1
 314 267 l 1
 323 266 l 1
 329 265 l 1
 329 208 350 157 395 115 c 0
 418 94 442 79 468 68 c 2
 487 61 l 1
 514 55 l 2
 525 53 538 52 553 52 c 0
 613 52 666 73 712 114 c 0
 758 155 781 206 781 265 c 1
 789 267 l 1
 807 266 l 1
 825 263 l 1
 833 263 l 1
281 286 m 1
 281 277 l 1
 329 277 l 1
 329 286 l 1
 281 286 l 1
282 262 m 1
 281 274 l 1
 329 274 l 1
 329 265 l 1
 282 262 l 1
781 286 m 1
 781 277 l 1
 833 277 l 1
 833 286 l 1
 781 286 l 1
781 265 m 1
 781 274 l 1
 833 274 l 1
 833 263 l 1
 781 265 l 1
690 284 m 1
 690 320 677 351 652 377 c 0
 627 403 595 416 558 416 c 0
 528 416 497 403 466 378 c 0
 435 353 419 322 419 285 c 1
 390 284 l 1
 390 325 407 363 441 397 c 0
 457 412 475 424 496 432 c 0
 506 436 516 439 527 441 c 2
 544 444 l 1
 559 445 l 2
 588 445 608 441 620 433 c 0
 638 426 656 415 673 398 c 0
 705 366 721 328 721 284 c 1
 701 284 l 1
 690 284 l 1
721 271 m 1
 721 229 705 192 672 161 c 0
 639 130 600 114 555 114 c 2
 540 114 l 1
 523 115 l 1
 508 118 l 1
 492 124 l 2
 473 131 456 143 440 159 c 0
 407 190 391 227 391 270 c 1
 405 271 l 1
 414 271 l 1
 419 271 l 1
 419 238 432 208 458 182 c 0
 471 170 485 160 501 153 c 0
 529 147 546 144 553 144 c 0
 589 144 620 156 648 180 c 0
 676 204 690 235 690 272 c 1
 699 273 l 1
 717 271 l 1
 721 271 l 1
390 284 m 1
 390 279 l 1
 419 279 l 1
 419 284 l 1
 390 284 l 1
391 270 m 1
 390 277 l 1
 419 277 l 1
 419 271 l 1
 391 270 l 1
690 284 m 1
 690 279 l 1
 721 279 l 1
 721 284 l 1
 690 284 l 1
690 272 m 1
 690 277 l 1
 721 277 l 1
 721 271 l 1
 690 272 l 1
EndSplineSet
EndChar

StartChar: at
Encoding: 63 64 62
Width: 1024
LayerCount: 2
Fore
SplineSet
164 399 m 1
 196 431 l 1
 485 142 l 1
 453 110 l 1
 164 399 l 1
193 110 m 1
 162 140 l 1
 451 430 l 1
 482 398 l 1
 193 110 l 1
EndSplineSet
EndChar

StartChar: hyphen
Encoding: 64 45 63
Width: 746
Flags: W
LayerCount: 2
Fore
SplineSet
217 203 m 1
 217 645 l 1
 115 645 l 1
 115 724 l 1
 342 724 l 1
 342 124 l 1
 115 124 l 1
 115 203 l 1
 217 203 l 1
EndSplineSet
EndChar

StartChar: zero
Encoding: 65 48 64
Width: 1024
LayerCount: 2
Fore
SplineSet
370 187 m 1
 358 186 l 1
 333 176 l 1
 312 165 l 1
 290 152 l 1
 257 133 l 1
 257 88 l 1
 290 108 l 1
 312 120 l 1
 333 131 l 1
 358 141 l 1
 370 142 l 1
 370 187 l 1
767 87 m 1
 755 81 l 1
 734 72 l 1
 705 57 l 1
 683 43 l 1
 660 32 l 1
 643 28 l 1
 643 73 l 1
 660 77 l 1
 683 88 l 1
 705 102 l 1
 734 117 l 1
 755 126 l 1
 767 131 l 1
 767 87 l 1
639 73 m 1
 608 74 l 1
 577 84 l 1
 551 97 l 1
 532 108 l 1
 517 117 l 1
 496 127 l 1
 475 139 l 1
 459 149 l 1
 445 159 l 1
 432 168 l 1
 415 178 l 1
 400 185 l 1
 387 187 l 1
 374 187 l 1
 374 152 l 1
 374 142 l 1
 387 142 l 1
 400 140 l 1
 415 133 l 1
 432 123 l 1
 445 114 l 1
 459 104 l 1
 475 94 l 1
 496 83 l 1
 517 72 l 1
 532 63 l 1
 551 52 l 1
 577 39 l 1
 608 29 l 1
 639 28 l 1
 639 73 l 1
EndSplineSet
EndChar

StartChar: one
Encoding: 66 49 65
Width: 1022
Flags: W
LayerCount: 2
Fore
SplineSet
832 -7 m 1
 832 190 l 1
 906 190 l 2
 923 190 935 188 942 184 c 0
 951 181 958 175 963 166 c 0
 966 161 968 157 969 153 c 2
 971 139 l 2
 971 131 969 123 965 115 c 2
 961 110 l 1
 956 105 l 1
 944 97 l 1
 956 93 965 87 971 79 c 2
 981 50 l 2
 981 41 979 32 975 24 c 2
 969 14 l 2
 967 11 964 8 960 6 c 2
 951 0 l 1
 939 -4 l 1
 925 -7 l 1
 907 -7 l 1
 832 -7 l 1
858 107 m 1
 901 107 l 1
 909 107 l 2
 917 107 922 108 925 109 c 0
 932 111 938 114 941 119 c 0
 944 124 946 131 946 136 c 0
 946 142 945 147 942 151 c 0
 940 155 934 159 927 163 c 2
 916 166 l 1
 897 166 l 1
 858 166 l 1
 858 107 l 1
858 16 m 1
 907 16 l 1
 916 16 l 2
 921 16 924 16 925 17 c 2
 932 19 l 1
 935 20 l 1
 941 22 l 2
 944 24 947 28 950 33 c 2
 953 41 l 1
 954 50 l 2
 954 57 952 63 948 68 c 0
 945 73 940 77 932 80 c 2
 919 82 l 1
 903 83 l 1
 858 83 l 1
 858 16 l 1
1087 -4 m 1
 1087 17 l 1
 1076 1 1061 -7 1042 -7 c 0
 1033 -7 1025 -6 1019 -3 c 2
 1008 3 l 1
 1002 9 l 1
 998 16 l 1
 994 27 l 1
 993 43 l 1
 993 50 l 1
 993 139 l 1
 1017 139 l 1
 1017 60 l 1
 1017 44 l 1
 1019 34 l 2
 1021 27 1023 22 1028 19 c 2
 1037 15 l 2
 1040 14 1043 13 1047 13 c 0
 1054 13 1060 15 1066 19 c 0
 1072 23 1077 28 1080 34 c 0
 1083 40 1085 49 1085 62 c 2
 1085 139 l 1
 1108 139 l 1
 1108 -4 l 1
 1087 -4 l 1
741 102 m 1
 741 117 735 130 725 141 c 0
 715 152 702 157 686 157 c 0
 671 157 657 152 646 142 c 0
 635 132 630 119 630 103 c 1
 604 103 l 1
 604 123 612 142 628 158 c 0
 644 174 664 182 686 182 c 0
 708 182 727 174 743 159 c 0
 759 144 766 125 766 103 c 1
 741 102 l 1
766 97 m 1
 766 77 758 59 741 43 c 0
 733 36 725 30 715 26 c 0
 705 22 695 20 685 20 c 0
 669 20 651 28 632 42 c 0
 613 56 604 74 604 96 c 1
 614 97 l 1
 620 97 l 1
 626 97 l 1
 630 98 l 1
 630 84 635 72 646 61 c 0
 657 51 671 45 686 45 c 0
 700 45 713 51 724 61 c 0
 735 71 741 83 741 98 c 1
 764 97 l 1
 766 97 l 1
604 103 m 1
 604 101 l 1
 630 101 l 1
 604 103 l 1
604 96 m 1
 604 99 l 1
 630 100 l 1
 604 96 l 1
766 103 m 1
 766 101 l 1
 741 101 l 1
 741 98 l 1
 766 99 l 1
 766 97 l 1
 766 103 l 1
EndSplineSet
EndChar

StartChar: two
Encoding: 67 50 66
Width: 1024
LayerCount: 2
Fore
SplineSet
750 101 m 1
 750 116 744 129 734 140 c 0
 724 151 711 156 695 156 c 0
 680 156 666 150 655 140 c 0
 644 130 639 117 639 101 c 1
 613 101 l 1
 613 121 621 140 637 156 c 0
 653 172 673 181 695 181 c 0
 717 181 736 173 752 158 c 0
 768 143 775 124 775 102 c 1
 750 101 l 1
775 95 m 1
 775 75 767 57 750 41 c 0
 742 34 734 29 724 25 c 0
 714 21 704 19 694 19 c 0
 678 19 660 26 641 40 c 0
 622 54 613 73 613 95 c 1
 623 96 l 1
 629 96 l 1
 635 96 l 1
 639 97 l 1
 639 83 644 70 655 59 c 0
 666 49 680 44 695 44 c 0
 709 44 722 49 733 59 c 0
 744 69 750 82 750 97 c 1
 773 95 l 1
 775 95 l 1
613 101 m 1
 613 99 l 1
 639 100 l 1
 613 101 l 1
613 95 m 1
 613 98 l 1
 639 98 l 1
 613 95 l 1
775 102 m 1
 775 99 l 1
 750 100 l 1
 750 97 l 1
 775 98 l 1
 775 95 l 1
 775 102 l 1
841 -11 m 1
 841 186 l 1
 928 186 l 2
 944 186 958 185 968 181 c 0
 978 177 986 171 990 163 c 0
 996 153 999 143 999 133 c 0
 999 125 998 119 996 116 c 2
 992 106 l 1
 985 99 l 2
 984 97 970 90 943 79 c 1
 958 69 l 1
 969 58 l 1
 980 43 l 1
 1014 -11 l 1
 981 -11 l 1
 956 30 l 1
 937 57 l 1
 932 64 l 1
 924 70 l 1
 918 74 l 2
 916 75 914 75 912 75 c 0
 908 76 903 77 897 77 c 2
 867 77 l 1
 867 -11 l 1
 841 -11 l 1
867 99 m 1
 923 99 l 2
 932 99 941 100 948 102 c 0
 955 104 962 109 967 115 c 2
 970 123 l 1
 972 133 l 2
 972 139 967 146 960 153 c 0
 953 160 942 165 929 165 c 2
 867 165 l 1
 867 99 l 1
1109 9 m 1
 1096 0 l 1
 1083 -7 l 1
 1070 -11 l 1
 1056 -12 l 2
 1040 -12 1028 -9 1020 -1 c 0
 1012 7 1008 17 1008 29 c 2
 1008 40 l 1
 1013 49 l 1
 1025 62 l 2
 1028 65 1034 68 1042 70 c 2
 1052 72 l 1
 1068 74 l 1
 1077 74 l 2
 1080 74 1084 75 1088 76 c 0
 1095 77 1102 79 1107 81 c 1
 1107 88 l 2
 1107 97 1104 104 1100 108 c 0
 1094 113 1084 117 1072 117 c 0
 1060 117 1053 115 1048 111 c 0
 1043 108 1038 101 1035 90 c 1
 1012 93 l 1
 1013 100 1014 105 1016 107 c 0
 1017 110 1019 114 1022 117 c 2
 1030 125 l 1
 1044 132 l 1
 1059 135 l 1
 1076 137 l 1
 1093 137 l 2
 1096 137 1101 135 1106 133 c 0
 1110 132 1113 130 1115 128 c 2
 1123 122 l 1
 1130 107 l 1
 1132 83 l 1
 1132 51 l 1
 1132 25 l 1
 1132 14 l 1
 1133 4 l 2
 1134 0 1136 -4 1139 -9 c 1
 1113 -9 l 1
 1110 0 l 1
 1109 9 l 1
1107 63 m 1
 1090 58 l 1
 1068 53 l 2
 1063 53 1059 52 1055 51 c 2
 1046 48 l 1
 1036 41 l 2
 1034 36 1033 32 1033 29 c 2
 1036 24 l 1
 1041 17 l 2
 1046 10 1053 7 1062 7 c 0
 1073 7 1081 9 1087 13 c 0
 1093 16 1099 22 1103 30 c 2
 1106 41 l 1
 1107 53 l 1
 1107 63 l 1
EndSplineSet
EndChar

StartChar: three
Encoding: 68 51 67
Width: 1024
LayerCount: 2
Fore
SplineSet
363 125 m 1
 321 125 l 1
 181 125 l 1
 181 473 l 1
 361 473 l 1
 361 447 l 1
 207 447 l 1
 207 150 l 1
 363 150 l 1
 363 125 l 1
364 150 m 1
 512 150 l 1
 512 447 l 1
 362 447 l 1
 362 473 l 1
 538 473 l 1
 538 125 l 1
 364 125 l 1
 364 150 l 1
457 150 m 1
 401 313 l 1
 414 338 l 1
 421 360 l 1
 419 383 l 1
 411 403 l 1
 396 419 l 1
 380 428 l 1
 369 431 l 1
 362 431 l 1
 362 399 l 1
 365 399 l 1
 371 397 l 1
 379 393 l 1
 387 384 l 1
 392 373 l 1
 393 361 l 1
 389 349 l 1
 374 312 l 1
 429 150 l 1
 457 150 l 1
263 150 m 1
 319 313 l 1
 305 338 l 1
 299 360 l 1
 301 383 l 1
 309 403 l 1
 323 419 l 1
 339 428 l 1
 351 431 l 1
 361 431 l 1
 361 399 l 1
 355 399 l 1
 348 397 l 1
 340 393 l 1
 332 384 l 1
 328 373 l 1
 327 361 l 1
 330 349 l 1
 345 312 l 1
 291 150 l 1
 263 150 l 1
EndSplineSet
EndChar

StartChar: four
Encoding: 69 52 68
Width: 1024
LayerCount: 2
Fore
SplineSet
363 125 m 1
 321 125 l 1
 181 125 l 1
 181 473 l 1
 361 473 l 1
 361 447 l 1
 207 447 l 1
 207 150 l 1
 363 150 l 1
 363 125 l 1
364 150 m 1
 512 150 l 1
 512 447 l 1
 362 447 l 1
 362 473 l 1
 538 473 l 1
 538 125 l 1
 364 125 l 1
 364 150 l 1
433 377 m 1
 423 387 410 395 393 400 c 2
 375 405 l 1
 356 408 l 1
 326 408 301 399 281 379 c 0
 259 358 248 331 248 299 c 0
 248 269 257 245 277 224 c 2
 278 223 l 1
 262 207 l 1
 252 218 243 232 236 250 c 2
 228 279 l 1
 226 298 l 2
 226 336 239 368 266 395 c 0
 278 407 296 417 317 423 c 2
 344 430 l 1
 359 433 l 2
 376 433 393 430 408 424 c 0
 423 418 438 408 450 396 c 0
 449 393 446 390 443 387 c 2
 433 377 l 1
262 207 m 1
 265 204 l 1
 281 220 l 1
 277 223 l 1
 262 207 l 1
270 199 m 1
 266 202 l 1
 282 218 l 1
 285 215 l 1
 270 199 l 1
392 343 m 1
 380 354 368 360 355 360 c 0
 341 360 329 354 317 342 c 0
 305 331 299 316 299 299 c 0
 299 283 304 269 315 258 c 1
 299 243 l 1
 285 259 278 278 278 299 c 0
 278 309 280 320 284 330 c 0
 288 340 294 349 302 356 c 0
 319 372 336 380 356 380 c 0
 375 380 392 373 406 359 c 1
 399 352 l 1
 392 343 l 1
299 243 m 1
 301 241 l 1
 316 257 l 1
 315 258 l 1
 299 243 l 1
304 238 m 1
 301 240 l 1
 317 256 l 1
 318 255 l 1
 304 238 l 1
455 205 m 1
 449 199 l 2
 442 192 429 184 409 176 c 2
 382 168 l 2
 373 166 366 165 359 165 c 0
 325 165 295 176 270 199 c 1
 272 203 l 1
 276 208 l 1
 283 214 l 1
 285 215 l 1
 306 197 331 188 358 188 c 0
 377 188 401 197 431 215 c 1
 436 220 l 1
 455 205 l 1
400 257 m 1
 397 254 l 2
 385 244 372 239 358 239 c 0
 344 239 330 245 318 255 c 1
 311 247 l 1
 304 238 l 1
 321 224 339 218 359 218 c 0
 377 218 394 224 410 237 c 2
 417 243 l 1
 400 257 l 1
392 343 m 1024
392 343 m 1024
392 343 m 1024
392 343 m 1024
418 360 m 1
 467 415 l 1
 499 339 l 1
 418 360 l 1
EndSplineSet
EndChar

StartChar: five
Encoding: 70 53 69
Width: 1024
LayerCount: 2
Fore
SplineSet
401 388 m 1
 388 388 l 1
 388 395 386 401 381 407 c 0
 376 413 369 415 361 415 c 2
 342 408 l 2
 337 403 333 396 332 388 c 1
 319 388 l 1
 319 398 323 408 331 416 c 0
 339 424 349 428 361 428 c 0
 372 428 381 424 389 416 c 0
 397 408 401 399 401 388 c 1
360 346 m 2
 357 346 347 350 331 357 c 0
 323 364 320 373 320 385 c 1
 332 386 l 1
 342 367 l 2
 347 362 353 360 360 360 c 2
 364 361 l 1
 375 367 l 2
 384 372 388 379 388 386 c 1
 400 385 l 1
 400 374 395 366 388 358 c 2
 376 351 l 1
 360 346 l 2
375 201 m 1
 345 201 l 1
 345 346 l 1
 375 346 l 1
 375 201 l 1
360 164 m 1
 342 164 l 1
 311 167 l 1
 289 180 l 1
 261 204 l 1
 246 226 l 1
 235 250 l 1
 227 276 l 1
 235 281 l 1
 247 260 l 1
 265 236 l 1
 282 219 l 1
 305 206 l 1
 325 201 l 1
 342 200 l 1
 360 200 l 1
 360 164 l 1
493 276 m 1
 485 250 l 1
 474 226 l 1
 459 204 l 1
 431 180 l 1
 408 167 l 1
 378 164 l 1
 360 164 l 1
 360 200 l 1
 378 200 l 1
 395 201 l 1
 414 206 l 1
 437 219 l 1
 455 236 l 1
 473 260 l 1
 485 281 l 1
 493 276 l 1
332 386 m 1
 319 387 l 1
 320 385 l 1
 332 386 l 1
388 386 m 1
 401 387 l 1
 388 386 l 1
363 125 m 1
 321 125 l 1
 181 125 l 1
 181 473 l 1
 361 473 l 1
 361 447 l 1
 207 447 l 1
 207 150 l 1
 363 150 l 1
 363 125 l 1
364 150 m 1
 512 150 l 1
 512 447 l 1
 362 447 l 1
 362 473 l 1
 538 473 l 1
 538 125 l 1
 364 125 l 1
 364 150 l 1
EndSplineSet
EndChar

StartChar: six
Encoding: 71 54 70
Width: 1024
LayerCount: 2
Fore
SplineSet
228 321 m 1
 526 321 l 1
 526 363 l 1
 228 363 l 1
 228 321 l 1
228 363 m 1
 228 321 l 1
 228 363 l 1
526 363 m 1
 526 321 l 1
 526 363 l 1
227 388 m 1
 679 388 l 1
 679 434 l 1
 227 434 l 1
 227 388 l 1
227 434 m 1
 227 388 l 1
 227 434 l 1
679 434 m 1
 679 388 l 1
 679 434 l 1
227 249 m 1
 678 249 l 1
 678 295 l 1
 227 295 l 1
 227 249 l 1
227 295 m 1
 227 249 l 1
 227 295 l 1
678 295 m 1
 678 249 l 1
 678 295 l 1
227 111 m 1
 679 111 l 1
 679 157 l 1
 227 157 l 1
 227 111 l 1
227 157 m 1
 227 111 l 1
 227 157 l 1
679 157 m 1
 679 111 l 1
 679 157 l 1
227 181 m 1
 526 181 l 1
 526 224 l 1
 227 224 l 1
 227 181 l 1
227 224 m 1
 227 181 l 1
 227 224 l 1
526 224 m 1
 526 181 l 1
 526 224 l 1
EndSplineSet
EndChar

StartChar: seven
Encoding: 72 55 71
Width: 987
Flags: W
LayerCount: 2
Fore
SplineSet
739 122 m 1
 739 466 l 1
 248 466 l 1
 248 122 l 1
 639 122 l 1
 739 122 l 1
639 272 m 1
 347 272 l 1
 347 312 l 1
 639 312 l 1
 639 272 l 1
615 410 m 1
 347 201 l 1
 347 219 l 1
 639 219 l 1
 639 199 l 1
 371 410 l 1
 615 410 l 1
639 388 m 1
 639 368 l 1
 347 368 l 1
 347 386 l 1
 615 177 l 1
 370 177 l 1
 639 388 l 1
EndSplineSet
EndChar

StartChar: eight
Encoding: 73 56 72
Width: 1213
Flags: W
LayerCount: 2
Fore
SplineSet
449 384 m 1
 276 557 l 1
 322 602 l 1
 493 432 l 1
 449 384 l 1
493 432 m 1
 499 436 l 1
 508 441 l 1
 525 450 l 2
 545 459 566 464 588 464 c 0
 603 464 624 460 650 452 c 2
 666 445 l 2
 671 443 677 440 683 435 c 1
 853 606 l 1
 898 560 l 1
 725 387 l 1
 739 363 746 336 746 306 c 2
 746 287 l 1
 744 273 l 1
 736 252 l 1
 722 223 l 1
 895 50 l 1
 849 5 l 1
 678 176 l 1
 665 168 l 1
 650 161 l 2
 630 152 609 147 588 147 c 0
 567 147 544 152 522 161 c 2
 506 168 l 1
 491 179 l 1
 319 10 l 1
 273 55 l 1
 449 228 l 1
 444 239 439 250 435 263 c 2
 431 283 l 1
 430 306 l 2
 430 323 432 335 435 345 c 0
 438 358 443 372 449 384 c 2
 493 432 l 1
EndSplineSet
EndChar

StartChar: nine
Encoding: 74 57 73
Width: 819
Flags: W
LayerCount: 2
Fore
SplineSet
204 -1 m 1
 609 -1 l 1
 609 763 l 1
 204 763 l 1
 204 -1 l 1
EndSplineSet
EndChar

StartChar: colon
Encoding: 75 58 74
Width: 1024
LayerCount: 2
Fore
SplineSet
129 216 m 1
 282 419 l 1
 435 216 l 1
 287 216 l 1
 276 216 l 1
 129 216 l 1
297 63 m 1
 305 63 l 1
 305 215 l 1
 259 215 l 1
 259 211 l 1
 259 63 l 1
 272 63 l 1
 297 63 l 1
282 1 m 1
 332 63 l 1
 233 63 l 1
 282 1 l 1
282 1 m 1024
282 1 m 1024
EndSplineSet
EndChar

StartChar: semicolon
Encoding: 76 59 75
Width: 1024
LayerCount: 2
Fore
SplineSet
285 247 m 1
 285 210 l 1
 281 210 l 1
 133 210 l 1
 286 414 l 1
 439 210 l 1
 291 210 l 1
 286 210 l 1
 286 247 l 1
 365 247 l 1
 286 354 l 1
 206 247 l 1
 285 247 l 1
285 -2 m 1
 335 60 l 1
 236 60 l 1
 285 -2 l 1
285 -2 m 1024
300 60 m 1
 308 60 l 1
 300 60 l 1
262 210 m 1
 262 60 l 1
 308 60 l 1
 308 210 l 1
 262 210 l 1
EndSplineSet
EndChar

StartChar: period
Encoding: 77 46 76
Width: 746
Flags: W
LayerCount: 2
Fore
SplineSet
342 124 m 1
 115 124 l 1
 115 724 l 1
 342 724 l 1
 342 645 l 1
 240 645 l 1
 240 203 l 1
 342 203 l 1
 342 124 l 1
EndSplineSet
EndChar

StartChar: slash
Encoding: 78 47 77
Width: 1024
LayerCount: 2
Fore
SplineSet
138 1 m 1
 185 1 l 1
 185 246 l 1
 138 246 l 1
 138 1 l 1
161 245 m 0
 139 245 120 253 105 268 c 0
 90 283 82 303 82 326 c 0
 82 348 90 367 106 383 c 0
 113 390 122 395 131 399 c 2
 146 404 l 1
 163 406 l 2
 184 406 202 398 218 382 c 0
 225 375 231 366 235 356 c 2
 239 343 l 1
 242 325 l 2
 242 303 234 283 219 268 c 0
 204 253 184 245 161 245 c 0
EndSplineSet
EndChar

StartChar: comma
Encoding: 79 44 78
Width: 819
Flags: W
LayerCount: 2
Fore
SplineSet
613 127 m 1
 203 127 l 1
 203 384 l 1
 613 384 l 1
 613 127 l 1
EndSplineSet
EndChar

StartChar: asterisk
Encoding: 80 42 79
Width: 398
Flags: W
LayerCount: 2
Fore
SplineSet
200 396 m 0
 255 396 301 376 340 337 c 0
 379 298 398 252 398 197 c 0
 398 142 379 95 340 56 c 0
 301 17 255 -3 200 -3 c 0
 145 -3 98 17 59 56 c 0
 20 95 0 142 0 197 c 0
 0 252 20 298 59 337 c 0
 98 376 145 396 200 396 c 0
200 354 m 0
 156 354 119 339 88 308 c 0
 57 277 42 241 42 197 c 0
 42 153 57 116 88 85 c 0
 119 54 156 39 200 39 c 0
 244 39 281 54 311 85 c 0
 341 116 356 153 356 197 c 0
 356 241 341 277 311 308 c 0
 281 339 244 354 200 354 c 0
187 209 m 1
 321 341 l 1
 342 319 l 1
 209 186 l 1
 187 209 l 1
218 197 m 0
 218 192 216 186 212 183 c 0
 208 180 205 178 200 178 c 0
 195 178 190 180 186 184 c 0
 182 188 180 192 180 197 c 0
 180 202 182 205 186 209 c 0
 190 213 195 215 200 215 c 0
 205 215 208 213 212 210 c 0
 216 207 218 202 218 197 c 0
EndSplineSet
EndChar

StartChar: parenright
Encoding: 81 41 80
Width: 1020
Flags: W
LayerCount: 2
Fore
SplineSet
512 816.437 m 0
 371.575 816.437 250.52 765.5923 151.254 666.327 c 0
 51.9884 567.0604 3.564 448.426 3.564 308.001 c 0
 3.564 167.576 51.9888 46.521 151.254 -52.745 c 0
 250.5192 -152.011 371.575 -200.435 512 -200.435 c 0
 652.425 -200.435 771.06 -152.0102 870.326 -52.745 c 0
 969.5916 46.5206 1020.436 167.576 1020.436 308.001 c 0
 1020.436 448.426 969.5913 567.061 870.326 666.327 c 0
 771.0594 765.5926 652.425 816.437 512 816.437 c 0
512 763.171 m 0
 640.32 763.171 746.848 719.5899 836.431 630.008 c 0
 926.0121 540.4279 967.171 433.898 967.171 308 c 0
 967.171 182.102 926.0118 73.152 836.431 -16.431 c 0
 746.848 -106.0121 640.321 -149.592 512 -149.592 c 0
 383.679 -149.592 277.152 -106.0119 187.569 -16.431 c 0
 97.9879 73.152 51.988 182.102 51.988 308 c 0
 51.988 433.898 97.988 540.428 187.569 630.008 c 0
 277.152 719.59 383.679 763.171 512 763.171 c 0
512 661.484 m 0
 608.8438 661.484 691.162 627.5875 761.376 557.376 c 0
 831.5879 487.1621 865.484 404.844 865.484 308 c 0
 865.484 211.156 831.5875 126.416 761.376 56.204 c 0
 691.1621 -14.0079 608.844 -47.904 512 -47.904 c 0
 415.156 -47.904 330.416 -14.0075 260.204 56.204 c 0
 189.9921 126.4159 153.674 211.156 153.674 308 c 0
 153.674 404.844 189.9924 487.162 260.204 557.376 c 0
 330.4159 627.5879 415.156 661.484 512 661.484 c 0
512 714.748 m 0
 400.629 714.748 306.204 673.5898 226.308 593.692 c 0
 146.4105 513.7955 105.252 419.371 105.252 308 c 0
 105.252 196.629 146.4102 99.783 226.308 19.887 c 0
 306.2045 -60.0095 400.629 -98.748 512 -98.748 c 0
 623.371 -98.748 717.796 -60.0097 797.692 19.887 c 0
 877.5895 99.7835 918.748 196.629 918.748 308 c 0
 918.748 419.371 877.5898 513.796 797.692 593.692 c 0
 717.7955 673.5895 623.371 714.748 512 714.748 c 0
512 661.484 m 0
 608.8438 661.484 691.162 627.5875 761.376 557.376 c 0
 831.5879 487.1621 865.484 404.844 865.484 308 c 0
 865.484 211.156 831.5875 126.416 761.376 56.204 c 0
 691.1621 -14.0079 608.844 -47.904 512 -47.904 c 0
 415.156 -47.904 330.416 -14.0075 260.204 56.204 c 0
 189.9921 126.4159 153.674 211.156 153.674 308 c 0
 153.674 404.844 189.9924 487.162 260.204 557.376 c 0
 330.4159 627.5879 415.156 661.484 512 661.484 c 0
512 714.748 m 0
 400.629 714.748 306.204 673.5898 226.308 593.692 c 0
 146.4105 513.7955 105.252 419.371 105.252 308 c 0
 105.252 196.629 146.4102 99.783 226.308 19.887 c 0
 306.2045 -60.0095 400.629 -98.748 512 -98.748 c 0
 623.371 -98.748 717.796 -60.0097 797.692 19.887 c 0
 877.5895 99.7835 918.748 196.629 918.748 308 c 0
 918.748 419.371 877.5898 513.796 797.692 593.692 c 0
 717.7955 673.5895 623.371 714.748 512 714.748 c 0
512 789.803 m 0
 645.162 789.803 756.534 741.3811 850.957 646.957 c 0
 945.3808 552.5341 993.803 441.162 993.803 308 c 0
 993.803 174.838 945.3811 61.046 850.957 -33.378 c 0
 756.5341 -127.8018 645.162 -176.224 512 -176.224 c 0
 378.838 -176.224 265.046 -127.8021 170.622 -33.378 c 0
 76.1982 61.0458 27.776 174.838 27.776 308 c 0
 27.776 441.162 76.1979 552.534 170.622 646.957 c 0
 265.0458 741.3808 378.838 789.803 512 789.803 c 0
512 688.116 m 0
 405.47 688.116 315.89 651.7986 240.834 576.744 c 0
 165.7793 501.6893 129.464 414.53 129.464 308 c 0
 129.464 201.47 165.7794 111.89 240.834 36.834 c 0
 315.8897 -38.2207 405.47 -74.536 512 -74.536 c 0
 618.53 -74.536 708.11 -38.2206 780.744 36.834 c 0
 853.3778 111.8897 892.116 201.47 892.116 308 c 0
 892.116 414.53 853.3777 501.689 780.744 576.744 c 0
 708.1103 651.799 618.53 688.116 512 688.116 c 0
512 53.7822 m 0
 582.2119 53.7822 642.74 77.9931 691.162 126.416 c 0
 739.5849 174.8379 763.7958 237.788 763.7958 308 c 0
 763.7958 378.212 739.5849 438.74 691.162 487.162 c 0
 642.7401 535.5849 582.212 559.7958 512 559.7958 c 0
 441.788 559.7958 378.838 535.5849 330.416 487.162 c 0
 281.9931 438.7401 255.3613 378.212 255.3613 308 c 0
 255.3613 237.788 281.9931 174.838 330.416 126.416 c 0
 378.8379 77.9931 441.788 53.7822 512 53.7822 c 0
512 104.626 m 0
 456.3145 104.626 407.893 123.9942 369.154 162.7324 c 0
 330.4157 201.4697 308.6257 252.3144 308.6257 308.0004 c 0
 308.6257 363.6864 330.4157 412.1074 369.154 450.8464 c 0
 407.8923 489.5854 456.3142 511.3747 512 511.3747 c 0
 567.6858 511.3747 616.107 489.5847 654.846 450.8464 c 0
 693.585 412.1081 715.3743 363.6862 715.3743 308.0004 c 0
 715.3743 252.3146 693.5843 201.4704 654.846 162.7324 c 0
 616.1077 123.9941 567.6858 104.626 512 104.626 c 0
512 77.9932 m 1024
512 77.9932 m 1024
512 77.9932 m 0
 449.0508 77.9932 393.366 102.2041 349.784 145.7842 c 0
 306.2039 189.3662 284.4149 245.0508 284.4149 308.0002 c 0
 284.4149 370.9496 306.204 424.2142 349.784 467.7942 c 0
 393.366 511.3743 449.0506 535.5852 512 535.5852 c 0
 574.9494 535.5852 628.214 511.3743 671.794 467.7942 c 0
 715.3741 424.2141 739.585 370.9495 739.585 308.0002 c 0
 739.585 245.0509 715.3741 189.3662 671.794 145.7842 c 0
 628.2139 102.2041 574.9493 77.9932 512 77.9932 c 0
512 77.9932 m 1024
EndSplineSet
EndChar

StartChar: braceleft
Encoding: 82 123 81
Width: 1024
LayerCount: 2
Fore
SplineSet
581.115 735.014 m 1
 798.586 735.014 974.439 559.01 974.439 341.197 c 0
 974.439 123.403 798.115 -53.144 580.664 -53.144 c 2
 580.664 -53.144 513.455 -53.011188 479.486 -53.011188 c 2
 304.646 -53.011188 l 2
 299.87256 -53.298297 269.9917 -53.011188 272.6128 -52.724079 c 1
 147.9528 -43.679159 49.5598 60.269921 49.5598 187.529921 c 1
 49.714097 187.529921 l 1
 49.714097 230.335621 84.378197 265.060221 127.133997 265.060221 c 0
 169.878097 265.060221 204.544197 230.335621 204.544197 187.529921 c 0
 204.544197 187.396132 204.481697 187.252577 204.481697 187.068007 c 0
 204.747322 139.893207 242.997297 101.671507 290.206297 101.671507 c 0
 337.507097 101.671507 375.950397 140.129507 375.950397 187.529907 c 0
 375.950397 232.520107 341.298097 269.295507 297.344897 272.986907 c 0
 296.842944 272.9468679 296.391772 272.8951101 295.930837 272.8951101 c 0
 258.409337 272.8951101 227.983537 303.3746101 227.983537 340.9508101 c 0
 227.983537 378.5153101 258.428837 409.0153101 295.930837 409.0153101 c 0
 296.176931 409.0153101 296.382009 408.975271 296.618337 408.975271 c 0
 340.960137 412.256521 375.950337 449.247771 375.950337 494.474271 c 0
 375.950337 541.874671 337.528437 580.301371 290.206237 580.301371 c 0
 243.130037 580.301371 204.993337 542.346271 204.544137 495.315071 c 0
 204.544137 452.508471 169.878137 417.794571 127.133937 417.794571 c 0
 84.665137 417.794571 50.225737 452.036771 49.755037 494.474271 c 1
 49.56949 494.474271 l 1
 49.56949 621.672271 148.04609 725.835271 272.80749 734.809271 c 1
 272.069209 734.8502866 274.01452 735.014349 275.73718 735.014349 c 0
 280.5282 735.301458 285.36218 735.486029 290.21568 735.486029 c 0
 295.09068 735.486029 299.9442 735.301459 304.73718 735.014349 c 2
 532.98118 735.014349 l 1
 581.11398 735.014349 l 1
 581.115 735.014 l 1
649.789 495.889 m 0
 649.789 542.2943 612.246 579.932 565.8867 579.932 c 0
 519.5586 579.932 481.9531 542.2943 481.9531 495.889 c 0
 481.9531 449.4935 519.5586 411.8665 565.8867 411.8665 c 0
 612.2461 411.8665 649.789 449.4935 649.789 495.889 c 0
649.83 298 m 1
 649.7889844 298 l 1
 649.7889844 338.2627 612.2147844 370.916 565.8866844 370.916 c 0
 519.5175844 370.916 481.9530844 338.2734 481.9530844 298 c 1
 481.9120688 298 l 1
 481.9120688 167.521 l 1
 482.4355068 167.521 l 1
 486.7773068 130.7749 522.4863068 102.1519 565.8964068 102.1519 c 0
 609.2968068 102.1519 644.9862068 130.7749 649.3476068 167.521 c 1
 649.8495598 167.521 l 1
 649.8495598 298 l 1
 649.83 298 l 1
EndSplineSet
EndChar

StartChar: uniF1C0
Encoding: 83 61888 82
Width: 870
Flags: W
LayerCount: 2
Fore
SplineSet
435 377.513 m 0
 605.517 377.513 776.6 408.1028 870.072 473.8177 c 1
 870.072 377.513 l 2
 870.072 297.6351 675.196 232.488 435 232.488 c 0
 194.804 232.488 -0.072 297.6355 -0.072 377.513 c 2
 -0.072 473.8177 l 1
 93.4007 408.1029 264.484 377.513 435 377.513 c 0
435 -57.5596 m 0
 605.517 -57.5596 776.6 -26.9688 870.072 38.7451 c 1
 870.072 -57.5596 l 2
 870.072 -137.4366 675.196 -202.5836 435 -202.5836 c 0
 194.804 -202.5836 -0.072 -137.4361 -0.072 -57.5596 c 2
 -0.072 38.7451 l 1
 93.4007 -26.9688 264.484 -57.5596 435 -57.5596 c 0
435 159.977 m 0
 605.517 159.977 776.6 190.5678 870.072 256.2817 c 1
 870.072 159.977 l 2
 870.072 80.1 675.196 14.953 435 14.953 c 0
 194.804 14.953 -0.072 80.1005 -0.072 159.977 c 2
 -0.072 256.2817 l 1
 93.4007 190.5678 264.484 159.977 435 159.977 c 0
435 812.584 m 0
 675.196 812.584 870.072 747.4365 870.072 667.56 c 2
 870.072 595.0483 l 2
 870.072 515.1713 675.196 450.0243 435 450.0243 c 0
 194.804 450.0243 -0.072 515.1718 -0.072 595.0483 c 2
 -0.072 667.56 l 2
 -0.072 747.437 194.804 812.584 435 812.584 c 0
EndSplineSet
EndChar

StartChar: uniF043
Encoding: 84 61507 83
Width: 543
Flags: W
LayerCount: 2
Fore
SplineSet
272 202.659 m 0
 272 215.8934 267.76562 228.5994 261.4121 239.1873 c 0
 254.53124 249.7742 226.4736 285.7713 215.3564 321.24 c 0
 213.76851 327.06227 208.47456 329.70973 204.2402 329.70973 c 0
 200.00485 329.70973 194.7109 327.06227 193.123 321.24 c 0
 182.0058 285.7712 153.9501 249.7742 147.0673 239.1873 c 0
 140.71574 228.5994 136.4794 215.8934 136.4794 202.659 c 0
 136.4794 165.075 166.6542 134.9002 204.2401 134.9002 c 0
 241.8251 134.9002 271.9999 165.075 272 202.659 c 0
543.04 270.42 m 0
 543.04 120.607 421.812 -0.62 272 -0.62 c 0
 122.188 -0.62 0.96 120.607 0.96 270.42 c 0
 0.96 323.8878 17.3702 373.649 43.8389 415.998 c 0
 70.8379 458.3486 184.1229 601.81 227.0029 744.74 c 0
 233.88474 767.5027 255.0595 778.6199 272 778.6199 c 0
 288.9405 778.6199 310.6436 767.5027 316.9971 744.74 c 0
 359.877 601.809 473.1621 458.348 500.1611 415.998 c 0
 527.1591 373.6484 543.04 323.8876 543.04 270.42 c 0
EndSplineSet
EndChar

StartChar: uniF03E
Encoding: 85 61502 84
Width: 1002
Flags: W
LayerCount: 2
Fore
SplineSet
334.8 502.2 m 0
 334.8 446.8152 289.8654 401.881 234.481 401.881 c 0
 179.0953 401.881 134.161 446.8156 134.161 502.2 c 0
 134.161 557.5848 179.0956 602.519 234.481 602.519 c 0
 289.8658 602.519 334.8 557.5844 334.8 502.2 c 0
869.84 301.56 m 1
 869.84 67.481 l 1
 134.16 67.481 l 1
 134.16 167.8 l 1
 301.359 335 l 1
 384.9596 251.4004 l 1
 652.4806 518.9204 l 1
 869.84 301.56 l 1
920 669.4 m 2
 84 669.4 l 2
 75.11816 669.4 67.2803 661.56211 67.2803 652.6803 c 2
 67.2803 17.3193 l 2
 67.2803 8.43746 75.11819 0.5996 84 0.5996 c 2
 920 0.5996 l 2
 928.88184 0.5996 936.7197 8.43749 936.7197 17.3193 c 2
 936.7197 652.6803 l 2
 936.7197 661.56214 928.88181 669.4 920 669.4 c 2
1003.6 652.681 m 2
 1003.6 17.32 l 2
 1003.6 -28.6595 965.9809 -66.2796 920.0004 -66.2796 c 2
 84.0004 -66.2796 l 2
 38.0199 -66.2796 0.4008 -28.6595 0.4008 17.32 c 2
 0.4008 652.681 l 2
 0.4008 698.6605 38.0199 736.2806 84.0004 736.2806 c 2
 920.0004 736.2806 l 2
 965.9809 736.2806 1003.6 698.6605 1003.6 652.681 c 2
EndSplineSet
EndChar

StartChar: uniF09E
Encoding: 86 61598 85
Width: 753
Flags: W
LayerCount: 2
Fore
SplineSet
202.928 104.285 m 0
 202.928 47.6161 156.9524 1.64 100.285 1.64 c 0
 43.6161 1.64 -2.36 47.6156 -2.36 104.285 c 0
 -2.36 160.952 43.6156 206.928 100.285 206.928 c 0
 156.952 206.928 202.928 160.9524 202.928 104.285 c 0
476.643 38.5293 m 1
 477.179133 28.90528 473.97112 19.8174 467.55511 12.8682 c 0
 461.14007 5.38382 452.05121 1.6407 442.42911 1.6407 c 2
 370.25921 1.6407 l 2
 352.61561 1.6407 338.18211 15.0069 336.57851 32.6485 c 0
 321.07561 195.7025 191.70151 325.0755 28.64851 340.5785 c 0
 11.00691 342.18202 -2.35929 356.6156 -2.35929 374.2592 c 2
 -2.35929 446.4291 l 2
 -2.35929 456.05117 1.38387 465.14 8.86821 471.5551 c 0
 14.74907 477.43596 23.30281 480.64299 31.85551 480.64299 c 2
 34.52934 480.64299 l 1
 148.39834 471.5551 255.85334 421.83639 336.57834 340.57899 c 0
 417.83614 259.85439 467.55534 152.39899 476.64234 38.52999 c 1
 476.643 38.5293 l 1
750.359 37.46 m 1
 750.892203 28.37113 747.68517 19.2842 740.73498 12.333 c 0
 734.31994 5.38378 725.76718 1.6406 716.14418 1.6406 c 2
 639.69598 1.6406 l 2
 621.52018 1.6406 606.55048 15.541 605.48208 33.7177 c 0
 587.83948 344.3207 340.32008 591.8397 29.71708 610.0177 c 0
 11.54028 611.08508 -2.36002 626.0548 -2.36002 643.6964 c 2
 -2.36002 720.1446 l 2
 -2.36002 729.76765 1.38314 738.3204 8.33238 744.7354 c 0
 14.7484 751.15142 23.30208 754.35942 31.85488 754.35942 c 2
 33.45937 754.35942 l 1
 220.56937 744.7354 396.45137 666.14942 529.03437 533.03542 c 0
 662.14837 400.45242 740.73437 224.57042 750.35837 37.46042 c 1
 750.359 37.46 l 1
EndSplineSet
EndChar

StartChar: parenleft
Encoding: 87 40 86
Width: 938
Flags: W
LayerCount: 2
Fore
SplineSet
408.428 558.6 m 1
 598.564 478.0014 732.1 289.557 732.1 70.201 c 0
 732.1 -1.4592 717.85 -69.82 692.0297 -132.199 c 1
 751.9008 -158.5984 l 1
 781.6703 -86.7673 798.1 -8.0034 798.1 74.6006 c 0
 798.1 320.7856 652.173 532.8406 442.087 629.0006 c 1
 408.428 558.6 l 1
716.7 690.6 m 1
 -2.7 -0.2 l 1
 936.7 -0.2 l 1
 936.7 98.8 l 1
 256.9 101.0002 l 1
 787.099 618.0002 l 1
 716.7 690.6 l 1
EndSplineSet
EndChar

StartChar: bar
Encoding: 88 124 87
Width: 1024
LayerCount: 2
Fore
SplineSet
161.532 846.357 m 1
 283.402 906.2105 423.302 847.79938 475.222 715.112 c 0
 503.346 644.4421 488.2025 599.732 312.968 238.448 c 0
 289.1711 187.9685 231.4807 200.949 199.751 264.408 c 0
 5.047 650.932 -2.164 765.592 161.5313 846.357 c 1
 161.532 846.357 l 1
342.535 721.603 m 1
 230.761 822.561 77.882 686.268 179.56 576.657 c 0
 204.0786 549.9754 229.3178 538.4373 263.9321 538.4373 c 0
 361.2837 538.4373 412.4841 658.1443 342.5346 721.6033 c 1
 342.535 721.603 l 1
682.907 549.975 m 1
 744.2029 569.4457 746.366 569.4457 808.383 550.695703 c 0
 977.127 500.217203 1006.694 362.481703 897.8029 133.163703 c 0
 858.1408 50.955703 822.0851 -30.531297 816.3156 -47.839297 c 0
 780.259 -163.940297 726.8957 -124.999497 621.6116 93.501703 c 0
 493.9716 360.318703 511.2796 494.448703 682.9075 549.975703 c 1
 682.907 549.975 l 1
827.133 413.682 m 0
 804.7775 436.0365 773.048 451.9017 749.9719 451.9017 c 0
 651.8987 451.9017 602.8629 328.5897 672.8117 259.3607 c 0
 721.8478 209.6029 778.0957 209.6029 827.1327 259.3607 c 0
 876.8905 308.3978 876.8905 364.6457 827.133 413.682 c 0
EndSplineSet
EndChar

StartChar: braceright
Encoding: 89 125 88
Width: 1024
LayerCount: 2
Fore
SplineSet
837.66 576.038 m 0
 866.0282 604.4052 924.8387 603.7138 956.666 574.65421 c 0
 1007.8662 528.29681 972.5791 431.43221 905.4658 431.43221 c 0
 868.1035 431.43221 719.3468 270.22121 719.3468 230.09121 c 0
 719.3468 216.25331 710.35266 194.80511 698.59 182.35101 c 0
 657.7687 137.37741 539.455 187.88617 539.455 250.15671 c 0
 539.455 281.29151 427.368 376.08071 392.082 375.38871 c 0
 365.0986 374.00492 223.261 219.02071 205.963 171.28071 c 0
 200.42784 156.75041 177.5958 131.15081 154.7628 115.23771 c 2
 113.9415 86.17811 l 1
 77.2716 119.38901 l 2
 10.8497 181.65851 47.5196 291.66901 129.8546 275.75601 c 0
 167.9093 268.83706 318.0496 420.36101 318.0496 466.02701 c 0
 318.0496 514.45861 345.7254 542.13441 394.157 542.13441 c 0
 442.5896 542.13441 484.1033 504.08071 484.1033 458.41561 c 0
 484.1033 421.74571 569.8982 352.55661 625.9413 344.25361 c 0
 682.6767 335.95088 816.2123 465.33461 816.2123 528.29661 c 0
 816.2123 542.13451 825.89882 563.58371 837.66 576.038 c 0
EndSplineSet
EndChar

StartChar: asciitilde
Encoding: 90 126 89
Width: 1024
LayerCount: 2
Fore
SplineSet
354.627 722.65 m 0
 381.5752 746.3639 382.6524 746.3639 390.1983 726.96152 c 0
 399.89947 697.85902 419.3008 689.23492 426.8467 708.63732 c 0
 434.39162 729.11782 451.6377 730.19492 477.5078 710.79357 c 0
 493.6758 697.85897 494.7539 692.46937 481.81932 668.75547 c 2
 466.72852 640.73007 l 1
 434.39162 661.21057 l 2
 404.21092 679.53477 399.89942 679.53477 382.65232 663.36584 c 0
 368.63962 649.35314 363.25092 648.27504 358.93842 659.05432 c 0
 355.70502 666.59924 347.08202 678.45662 339.53702 686.00162 c 0
 328.75772 695.70279 331.99112 703.24772 354.627 722.65 c 0
552.96 663.366 m 0
 559.42777 666.5994 575.5957 663.366 588.5303 653.66483 c 0
 610.0889 640.73023 611.166 634.26253 601.4649 611.62673 c 0
 587.4522 582.52423 574.5176 579.28983 546.4922 600.84843 c 0
 527.0908 615.93823 531.4024 648.27523 552.96 663.366 c 0
244.682 639.652 m 0
 269.474 665.5221 271.6302 665.5221 295.3431 638.57485 c 0
 313.6673 617.01625 313.6673 614.86095 292.1097 595.45865 c 0
 264.0843 569.58955 256.5394 569.58955 239.2933 597.61392 c 0
 226.3578 617.01622 227.4359 623.48402 244.682 639.652 c 0
654.282 577.135 m 0
 671.5281 611.6272 676.9177 612.7053 703.865 592.2258 c 0
 717.8777 581.4465 721.1111 569.5901 715.7214 549.1096 c 0
 708.17648 516.7727 704.9431 515.6946 667.2165 534.0188 c 0
 641.3474 545.8762 640.2692 548.0315 654.282 577.135 c 0
141.204 565.278 m 0
 163.8397 584.6794 164.9179 584.6794 186.4755 557.7321 c 2
 208.0331 529.7067 l 1
 182.164 509.2272 l 2
 148.749 483.3571 147.6718 483.3571 132.581 517.85025 c 0
 120.7246 542.64225 121.8017 548.03095 141.204 565.278 c 0
771.772 515.694 m 0
 792.2525 546.9538 795.4859 546.9538 822.4331 527.5514 c 0
 836.4458 516.7721 839.6792 504.9157 834.2895 484.4352 c 0
 827.8227 458.5661 797.642 443.4752 797.642 467.1891 c 0
 797.642 473.65687 787.94083 477.9684 776.0834 477.9684 c 0
 750.2143 477.9684 749.1361 482.27992 771.772 515.694 c 0
57.1289 499.526 m 2
 70.0635 510.3053 86.2314 515.694 93.7764 513.5387 c 0
 111.0235 507.07093 112.1006 488.7467 95.93265 488.7467 c 0
 88.38773 488.7467 86.23148 477.9684 90.543 461.7994 c 0
 99.16605 428.3853 89.46488 427.3072 58.2061 457.48788 c 2
 33.4151 481.20178 l 1
 57.1289 499.526 l 2
888.186 455.333 m 0
 911.8999 481.2021 923.7563 483.3574 941.0024 465.0332 c 0
 951.7817 454.2549 949.62545 445.6318 931.30123 427.3076 c 0
 911.89983 405.749 906.51023 404.6719 888.18603 417.60643 c 0
 868.78373 432.69723 868.78373 433.77443 888.186 455.333 c 0
113.179 418.685 m 0
 131.5032 433.7748 146.594 445.6323 146.594 445.6323 c 2
 147.67212 445.6323 156.29517 433.7749 165.9963 418.685 c 0
 182.1643 393.893 182.1643 391.7377 157.37325 366.9457 c 2
 131.50315 341.0766 l 1
 117.49045 365.8676 l 2
 109.94553 379.8803 99.16625 391.7377 92.69945 391.7377 c 0
 86.23168 392.81485 95.93285 404.6723 113.179 418.685 c 0
612.244 438.086 m 0
 603.62095 441.32038 606.85435 444.55377 618.71177 444.55377 c 0
 630.56817 445.63189 637.03597 442.39752 632.72447 439.16412 c 0
 629.49009 435.93072 619.78897 434.8526 612.244 438.086 c 0
250.071 380.958 m 0
 250.071 396.0488 252.22725 401.4375 255.46065 394.9707 c 0
 257.6169 387.4248 257.6169 374.4902 255.46065 368.0234 c 0
 252.22725 360.4775 250.071 365.86715 250.071 380.958 c 0
873.095 343.231 m 0
 873.095 380.9576 873.095 382.0357 916.2112 378.8013 c 0
 945.3137 377.72415 956.093 373.41263 948.5481 365.8667 c 0
 943.15845 360.47705 937.7688 344.3091 937.7688 330.2964 c 0
 937.7688 309.8159 932.37915 305.5044 905.4319 305.5044 c 0
 875.2512 305.5044 873.095 308.73878 873.095 343.231 c 0
204.8 316.284 m 0
 204.8 335.6863 231.7473 328.1404 245.76 304.4276 c 0
 258.6946 285.0253 257.6174 278.5575 237.13695 260.2333 c 2
 214.50125 238.6757 l 1
 192.94365 260.2333 l 2
 168.15165 287.1806 165.99635 305.5048 188.63213 305.5048 c 0
 197.25518 305.5048 204.80013 310.89445 204.8 316.284 c 0
908.665 244.065 m 0
 926.9892 246.22027 943.1582 249.45465 943.1582 249.45465 c 2
 944.23535 250.5318 942.08008 234.36385 939.92382 213.88335 c 0
 935.6123 180.46925 931.30077 176.15775 904.35352 176.15775 c 0
 877.40627 176.15775 873.09472 180.46927 873.09472 207.41655 c 0
 873.09472 235.44195 877.40624 239.75345 908.665 244.065 c 0
272.707 205.261 m 0
 300.7324 233.2864 312.5898 235.4426 312.5898 214.96217 c 0
 312.5898 207.41725 320.13472 194.48267 328.7578 186.93677 c 0
 343.8486 174.00217 342.7705 170.76877 316.9014 153.52267 c 0
 288.876 135.19847 286.7198 135.19847 268.3955 157.83419 c 0
 250.0712 180.46991 250.0713 182.62519 272.707 205.261 c 0
355.705 100.705 m 1
 355.705 120.1073 382.6523 112.5624 396.665 88.8486 c 0
 409.5996 69.4463 408.5224 62.9785 388.04195 44.6543 c 0
 365.40625 24.1748 365.40625 24.1748 344.92675 48.9668 c 0
 320.13475 79.1475 317.97855 89.9268 339.5371 89.9268 c 0
 348.16015 89.9268 355.7051 95.31547 355.7051 100.7051 c 2
 355.705 100.705 l 1
866.627 95.3154 m 0
 861.23833 108.2509 868.78325 111.4843 900.042 111.4843 c 0
 932.3789 111.4843 938.8467 108.2509 933.457 94.2382 c 0
 930.2236 84.53703 926.98923 69.4462 926.98923 60.8232 c 0
 926.98923 47.8886 919.44431 45.7324 894.65233 51.12203 c 0
 876.32813 54.35543 862.31543 52.20015 862.31543 46.81051 c 0
 862.31543 40.34274 868.7832 37.10934 876.32813 39.26559 c 0
 882.7959 40.34274 889.26273 34.95407 889.26273 28.48629 c 0
 889.26273 20.94137 886.02933 14.47359 881.71781 14.47359 c 0
 821.35551 14.47359 822.43361 13.39547 827.82331 46.81049 c 0
 831.05671 69.44619 838.60261 79.14739 852.61431 79.14739 c 0
 865.54981 79.14739 869.86141 84.53704 866.627 95.3154 c 0
431.158 57.5898 m 0
 431.158 86.6923 434.3914 89.9267 463.4949 89.9267 c 0
 492.5974 89.9267 495.8318 86.69232 495.8318 57.5898 c 0
 495.8318 28.4863 492.59742 25.2529 463.4949 25.2529 c 0
 434.3914 25.2529 431.158 28.4863 431.158 57.5898 c 0
568.051 83.459 m 0
 572.36252 86.6924 582.0637 87.77052 590.6867 84.53712 c 0
 598.23162 81.30274 610.089 79.14747 615.4777 79.14747 c 0
 620.86735 79.14747 625.17887 65.13477 625.17887 46.81057 c 0
 625.17887 18.78517 621.94547 15.55177 601.46497 18.78517 c 0
 587.45227 22.01857 573.44057 24.17482 569.12907 24.17482 c 0
 558.34977 25.25294 558.34977 72.67972 568.051 83.459 c 0
692.009 46.8105 m 0
 693.08615 75.914 696.32052 79.1474 727.5793 79.1474 c 0
 758.8381 79.1474 762.0715 75.914 760.9943 46.8105 c 0
 759.91618 17.707 756.6818 14.4736 725.423 14.4736 c 0
 694.1642 14.4736 690.9308 17.707 692.009 46.8105 c 0
EndSplineSet
EndChar
